<svg width="548" height="210" viewBox="0 0 548 210" fill="none" xmlns="http://www.w3.org/2000/svg">
<path d="M248.203 80V52.6562H262.422V56.9531H252.578V64.2188H258.75V68.5938H252.578V75.6641H262.422V80H248.203ZM265.547 80V52.6562H269.922V75.7031H280.234V80H265.547ZM282.5 80V52.6562H296.719V56.9531H286.875V64.2188H293.047V68.5938H286.875V75.6641H296.719V80H282.5ZM299.883 80V59.6094H300.195L304.258 66.1328V80H299.883ZM299.883 55.4688V52.6562H303.516L317.266 74.7266V80H315.156L299.883 55.4688ZM312.891 64.0625V52.6562H317.266V70.5859H316.953L312.891 64.0625ZM320.117 80L325.273 57.0703H325.859L327.656 65.3516L324.414 80H320.117ZM327.344 76.0938L328.242 71.8359H331.172L326.953 52.6562H331.25L337.539 80H333.203L332.344 76.0938H327.344Z" fill="white"/>
<path d="M241.291 60.12V53.64L244.531 56.88V60.12H241.291ZM241.291 66.6V60.12L244.531 63.36V66.6H241.291ZM195.931 79.56V47.16H212.131L215.371 50.4V63.36H225.091V47.16H241.291L244.531 50.4V53.64H241.291V50.4H228.331V63.36L225.091 66.6H212.131V50.4H199.171V76.32L195.931 79.56ZM241.291 73.08V66.6L244.531 69.84V73.08H241.291ZM241.291 79.56V73.08L244.531 76.32V79.56H241.291ZM241.291 86.04V79.56L244.531 82.8V86.04H241.291ZM241.291 92.52V86.04L244.531 89.28V92.52H241.291ZM195.931 99V79.56H199.171V95.76H212.131V79.56H225.091L228.331 82.8V95.76H238.051L234.811 99H225.091V82.8H215.371V95.76L212.131 99H195.931ZM241.291 95.76V92.52L244.531 95.76H241.291ZM238.051 99V95.76H241.291V99H238.051Z" fill="white"/>
<path d="M247.126 97.0623L249.64 85.0984L249.947 85.0951L251.241 90.8234L249.955 97.0312L247.126 97.0623ZM251.474 95.2713L252.058 92.4346L252.797 92.4265L250.515 82.6688L253.366 82.6374L256.907 96.9549L254.036 96.9864L253.607 95.2479L251.474 95.2713ZM258.158 96.9411L258.058 87.8362L258.243 87.8342L261.021 94.305L261.049 96.9094L258.158 96.9411ZM258.021 84.4731L258 82.5865L260.256 82.5618L264.277 92.0133L266.397 87.0883L266.602 87.0861L266.675 93.7507L265.335 96.8623L263.346 96.8841L258.021 84.4731ZM267.817 96.835L267.659 82.4804L270.55 82.4487L270.708 96.8033L267.817 96.835ZM272.226 96.7866L274.74 84.8227L275.047 84.8193L276.341 90.5477L275.055 96.7555L272.226 96.7866ZM276.574 94.9956L277.158 92.1589L277.897 92.1508L275.616 82.393L278.466 82.3617L282.007 96.6791L279.136 96.7107L278.707 94.9721L276.574 94.9956ZM283.012 96.6681L282.98 93.7767L287.192 85.1371L282.886 85.1844L282.854 82.3135L290.36 82.2311L290.391 85.0405L286.179 93.68L290.485 93.6327L290.517 96.5857L283.012 96.6681ZM291.748 96.5721L291.716 93.6807L295.928 85.0411L291.622 85.0885L291.59 82.2175L299.096 82.1351L299.126 84.9445L294.914 93.584L299.221 93.5367L299.253 96.4897L291.748 96.5721ZM300.604 92.4756L300.53 85.7289C300.522 85.0044 300.821 84.2627 301.428 83.5041C302.238 82.5108 303.271 82.0003 304.529 81.9729L304.56 84.8643C304 84.8841 303.634 85.2026 303.463 85.8198C303.437 85.9157 303.424 85.9843 303.425 86.0253L303.495 92.4438C303.501 93.0043 303.813 93.3837 304.431 93.5821C304.527 93.6083 304.595 93.6213 304.636 93.6208L304.668 96.5328C303.889 96.5413 303.107 96.2696 302.321 95.7177C301.205 94.9096 300.632 93.8289 300.604 92.4756ZM305.796 96.5204L305.764 93.6084C305.983 93.606 306.228 93.4871 306.498 93.2517C306.756 93.0164 306.889 92.7347 306.899 92.4064L306.829 85.9879C306.826 85.7418 306.707 85.4833 306.472 85.2125C306.25 84.9824 305.982 84.8623 305.668 84.8521L305.636 81.9607C307.017 81.9455 308.131 82.528 308.978 83.7083C309.464 84.3866 309.71 85.0265 309.717 85.628L309.791 92.3747C309.807 93.8922 309.143 95.0616 307.799 95.8831C307.092 96.301 306.425 96.5135 305.796 96.5204ZM310.795 84.8368L310.764 82.0069L319.643 81.9094L319.674 84.7393L316.68 84.7722L316.807 96.2969L313.915 96.3286L313.789 84.8039L310.795 84.8368ZM320.289 84.7325L320.258 81.9026L329.138 81.8051L329.169 84.635L326.175 84.6679L326.301 96.1926L323.41 96.2243L323.283 84.6996L320.289 84.7325ZM330.464 96.1468L330.307 81.7922L337.771 81.7102L337.802 84.5811L333.23 84.6314L333.262 87.5433L335.907 87.5143L335.939 90.4057L333.293 90.4347L333.324 93.2236L337.897 93.1734L337.929 96.0648L330.464 96.1468Z" fill="white"/>
<path d="M220.27 120.482V104.436V103.42C220.591 103.386 220.896 103.361 221.184 103.344C221.471 103.327 221.751 103.318 222.021 103.318C223.156 103.318 224.07 103.445 224.764 103.699C225.475 103.936 226.016 104.232 226.389 104.588C226.761 104.943 227.007 105.316 227.125 105.705C227.26 106.077 227.328 106.399 227.328 106.67C227.328 107.533 227.117 108.295 226.693 108.955C226.287 109.615 225.669 110.072 224.84 110.326C227.379 110.326 229.249 110.758 230.451 111.621C231.67 112.484 232.279 113.652 232.279 115.125C232.279 116.868 231.467 118.214 229.842 119.162C228.217 120.093 225.754 120.559 222.453 120.559C221.759 120.559 221.031 120.533 220.27 120.482ZM221.082 104.893L221.438 110.225C222.707 110.106 223.731 109.759 224.51 109.184C225.305 108.608 225.703 107.838 225.703 106.873C225.703 106.247 225.415 105.747 224.84 105.375C224.264 105.003 223.41 104.816 222.275 104.816C221.903 104.816 221.505 104.842 221.082 104.893ZM221.488 111.9L221.895 118.654C222.233 118.688 222.555 118.714 222.859 118.73C223.181 118.747 223.494 118.756 223.799 118.756C224.747 118.756 225.635 118.68 226.465 118.527C227.294 118.358 228.014 118.113 228.623 117.791C229.232 117.469 229.706 117.08 230.045 116.623C230.4 116.166 230.578 115.641 230.578 115.049C230.578 114.524 230.383 114.059 229.994 113.652C229.622 113.229 229.122 112.874 228.496 112.586C227.87 112.298 227.142 112.087 226.312 111.951C225.5 111.799 224.662 111.723 223.799 111.723C223.41 111.723 223.02 111.74 222.631 111.773C222.242 111.807 221.861 111.85 221.488 111.9ZM240.379 119.467H234.336V118.045H236.316V105.35H233.473V103.979L239.059 103.623V105.096L237.23 105.248V117.943H240.379V119.467ZM242.664 120.482V104.436V103.42C242.986 103.386 243.29 103.361 243.578 103.344C243.866 103.327 244.145 103.318 244.416 103.318C245.55 103.318 246.464 103.445 247.158 103.699C247.869 103.936 248.411 104.232 248.783 104.588C249.156 104.943 249.401 105.316 249.52 105.705C249.655 106.077 249.723 106.399 249.723 106.67C249.723 107.533 249.511 108.295 249.088 108.955C248.682 109.615 248.064 110.072 247.234 110.326C249.773 110.326 251.644 110.758 252.846 111.621C254.064 112.484 254.674 113.652 254.674 115.125C254.674 116.868 253.861 118.214 252.236 119.162C250.611 120.093 248.148 120.559 244.848 120.559C244.154 120.559 243.426 120.533 242.664 120.482ZM243.477 104.893L243.832 110.225C245.102 110.106 246.126 109.759 246.904 109.184C247.7 108.608 248.098 107.838 248.098 106.873C248.098 106.247 247.81 105.747 247.234 105.375C246.659 105.003 245.804 104.816 244.67 104.816C244.298 104.816 243.9 104.842 243.477 104.893ZM243.883 111.9L244.289 118.654C244.628 118.688 244.949 118.714 245.254 118.73C245.576 118.747 245.889 118.756 246.193 118.756C247.141 118.756 248.03 118.68 248.859 118.527C249.689 118.358 250.408 118.113 251.018 117.791C251.627 117.469 252.101 117.08 252.439 116.623C252.795 116.166 252.973 115.641 252.973 115.049C252.973 114.524 252.778 114.059 252.389 113.652C252.016 113.229 251.517 112.874 250.891 112.586C250.264 112.298 249.536 112.087 248.707 111.951C247.895 111.799 247.057 111.723 246.193 111.723C245.804 111.723 245.415 111.74 245.025 111.773C244.636 111.807 244.255 111.85 243.883 111.9ZM256.832 118.705V103.725H258.609V118.096H267.75V119.924H257.848L256.832 118.705ZM275.977 119.467H269.934V118.045H271.914V105.35H269.07V103.979L274.656 103.623V105.096L272.828 105.248V117.943H275.977V119.467ZM287.707 111.494C287.555 110.648 287.352 109.852 287.098 109.107C286.844 108.363 286.531 107.719 286.158 107.178C285.803 106.619 285.388 106.179 284.914 105.857C284.44 105.536 283.907 105.375 283.314 105.375C282.654 105.375 282.087 105.536 281.613 105.857C281.139 106.162 280.742 106.568 280.42 107.076C280.115 107.584 279.887 108.16 279.734 108.803C279.582 109.446 279.506 110.106 279.506 110.783C279.506 111.579 279.59 112.434 279.76 113.348C279.929 114.262 280.191 115.108 280.547 115.887C280.902 116.648 281.351 117.283 281.893 117.791C282.451 118.299 283.103 118.553 283.848 118.553C284.576 118.553 285.193 118.392 285.701 118.07C286.209 117.732 286.615 117.3 286.92 116.775C287.242 116.234 287.47 115.633 287.605 114.973C287.741 114.312 287.809 113.661 287.809 113.018C287.809 112.764 287.8 112.51 287.783 112.256C287.766 111.985 287.741 111.731 287.707 111.494ZM289.383 111.291C289.417 111.562 289.442 111.833 289.459 112.104C289.476 112.357 289.484 112.62 289.484 112.891C289.484 113.788 289.374 114.685 289.154 115.582C288.934 116.462 288.604 117.258 288.164 117.969C287.724 118.68 287.165 119.255 286.488 119.695C285.811 120.135 285.016 120.355 284.102 120.355C283.272 120.355 282.477 120.144 281.715 119.721C280.953 119.281 280.276 118.663 279.684 117.867C279.108 117.055 278.643 116.081 278.287 114.947C277.949 113.813 277.779 112.535 277.779 111.113C277.779 110.182 277.889 109.277 278.109 108.396C278.329 107.516 278.668 106.729 279.125 106.035C279.582 105.341 280.158 104.783 280.852 104.359C281.546 103.936 282.367 103.725 283.314 103.725C284.279 103.725 285.117 103.97 285.828 104.461C286.539 104.935 287.14 105.544 287.631 106.289C288.122 107.034 288.511 107.855 288.799 108.752C289.087 109.632 289.281 110.479 289.383 111.291ZM296.34 105.654H290.805V104.182H303.652V105.451H297.914L299.285 120.076L297.66 120.229L296.34 105.654ZM316.602 118.248V120.025H306.953L306.039 118.807V105.4L307.055 103.928H315.23V105.4H307.816V111.088H315.738V112.459H307.715V118.248H316.602ZM328.688 105.959L327.57 106.67C327.299 106.281 326.893 105.934 326.352 105.629C325.81 105.324 325.234 105.172 324.625 105.172C323.914 105.172 323.254 105.35 322.645 105.705C322.052 106.044 321.527 106.535 321.07 107.178C320.63 107.821 320.283 108.591 320.029 109.488C319.775 110.385 319.648 111.376 319.648 112.459C319.665 113.407 319.835 114.262 320.156 115.023C320.495 115.785 320.926 116.437 321.451 116.979C321.976 117.503 322.56 117.91 323.203 118.197C323.846 118.485 324.49 118.629 325.133 118.629C325.979 118.629 326.741 118.443 327.418 118.07C328.095 117.681 328.704 117.063 329.246 116.217L330.262 117.689C329.5 118.604 328.679 119.272 327.799 119.695C326.919 120.118 325.988 120.33 325.006 120.33C324.109 120.33 323.237 120.127 322.391 119.721C321.544 119.314 320.791 118.747 320.131 118.02C319.471 117.275 318.938 116.386 318.531 115.354C318.142 114.304 317.947 113.145 317.947 111.875C317.947 110.91 318.074 109.937 318.328 108.955C318.582 107.973 318.971 107.085 319.496 106.289C320.038 105.493 320.723 104.85 321.553 104.359C322.399 103.852 323.406 103.598 324.574 103.598C325.454 103.598 326.275 103.775 327.037 104.131C327.799 104.486 328.349 105.096 328.688 105.959ZM335.441 111.951H339.352L337.168 106.213L335.441 111.951ZM333.055 120.279L331.328 119.873L336.559 103.318H337.676L343.82 119.975L342.195 120.432L339.809 113.525H335.035L333.055 120.279Z" fill="#FFED76"/>
<path d="M112.674 31.3479C112.267 31.6868 111.657 34.2287 111.251 36.94L110.539 41.9389H106.676C99.3555 41.9389 98.1355 42.8709 96.8139 49.3102C91.0188 77.4398 86.1388 100.401 84.7155 106.925C83.8005 111.246 83.2922 114.974 83.5972 115.313C83.9022 115.567 85.9355 115.059 88.1722 114.127C102.609 108.027 128.127 106.84 149.477 111.331C153.646 112.263 157.204 112.856 157.306 112.771C158.119 112.178 145.411 106.756 139.412 105.061C131.177 102.689 116.537 100.401 109.827 100.401C101.592 100.401 101.694 101.757 107.591 73.966C114.707 41.0916 116.029 35.669 116.741 34.9912C117.961 33.9745 136.057 36.0079 144.902 38.1261C149.782 39.3123 155.882 41.1763 158.627 42.3625C161.372 43.5487 164.321 44.4807 165.134 44.4807C166.049 44.4807 169.811 47.0225 173.674 50.1575L180.689 55.919L181.401 76.2536C181.807 87.4377 182.519 96.9272 183.027 97.2661C183.434 97.6897 184.146 88.878 184.451 77.7787C184.857 66.6794 185.569 56.7662 186.077 55.7495C188.111 51.5978 208.647 39.9054 219.729 36.6858C220.543 36.4316 220.848 36.0079 220.543 35.669C219.831 34.9912 214.925 37.1729 213.4 37.8084C213.782 37.8084 213.4 37.8084 212.638 38.1261C211.494 38.4438 205.597 40.0749 199.497 43.3793C196.447 44.9891 191.466 48.2087 188.517 50.5811L183.027 54.9022L177.537 50.5811C167.472 42.6167 154.052 36.601 139.717 33.5508C131.076 31.6868 113.894 30.3312 112.674 31.3479ZM109.217 44.3113C109.624 44.9044 107.896 54.4786 101.287 86.2515C97.4239 104.553 96.1022 102.604 112.674 103.197C126.094 103.621 141.242 105.908 145.309 108.111C146.631 108.789 146.427 108.874 144.394 108.45C142.971 108.111 133.414 107.688 123.044 107.433C106.574 107.094 103.321 107.264 96.6105 108.704C92.4422 109.636 88.7822 110.229 88.5788 110.06C88.3755 109.975 88.9855 106.078 89.7988 101.502C90.7138 96.9272 92.8488 85.5737 94.5772 76.2536C97.6272 59.7317 99.1522 51.5131 100.271 46.8531C100.576 45.5822 101.592 44.396 102.507 44.2265C105.456 43.5487 108.709 43.6334 109.217 44.3113Z" fill="white"/>
<path d="M71.963 116.895C68.7097 125.199 68.608 125.432 66.7018 131.786C66.7018 132.422 66.7018 132.422 66.9814 132.739C68.9893 132.739 68.9893 132.739 83.3497 130.706C99.3114 128.334 123.508 125.792 142.113 124.69C158.177 123.674 158.685 123.674 162.447 125.453C165.598 126.893 166.668 127.779 169.258 128.609C174.215 130.198 174.596 130.833 181.458 131.469C186.415 131.151 186.135 130.791 191.218 129.435C196.81 127.825 202.808 123.97 203.952 123.335C204.715 123.017 205.096 123.017 205.096 123.017C205.096 123.017 203.952 123.017 202.808 123.017C201.665 123.97 205.842 123.335 212.958 121.894C226.827 120.793 226.827 120.157 215.5 120.2C213.772 119.861 210.535 119.691 208.908 119.776C207.18 119.946 205.202 119.776 203.702 119.739C202 120 201.702 119.739 200.267 120.2C196.202 122.739 190.913 125.199 181.865 125.199C173.325 125.199 172.918 125.114 167.327 121.894L161.633 118.59L150.653 119.183C136.725 119.946 114.866 121.979 103.175 123.589C92.4998 125.029 74.5047 127.995 71.963 128.672C70.743 128.927 70.3364 128.757 70.6414 127.995C70.8447 127.402 71.353 125.961 71.5564 124.775C71.8614 123.589 73.488 118.251 75.1147 112.913C76.843 107.575 78.0631 103.085 77.8597 103C77.6564 102.831 75.013 109.1 71.963 116.895Z" fill="white"/>
<path d="M220 101H338" stroke="#FFED76"/>
</svg>
