<svg width="493" height="210" viewBox="0 0 493 210" fill="none" xmlns="http://www.w3.org/2000/svg">
<mask id="path-1-inside-1_212_4" fill="white">
<path d="M93.8595 99.8547V142.709L102.485 142.929C112.53 143.193 118.535 144.292 125.469 147.193C132.566 150.182 139.007 155.588 141.901 161.038C143.539 164.115 142.993 164.335 140.481 161.653C129.29 149.786 113.622 144.863 93.8595 146.929C89.2191 147.456 85.2884 148.16 81.5761 149.259C78.5736 150.094 75.571 150.841 74.8613 150.885L73.6056 150.929L73.6602 110.579C73.7148 72.164 73.6602 70.274 72.7322 70.274C70.9852 70.274 70.4393 70.8893 70.2755 73.131C70.1117 75.1968 70.0025 75.3286 68.3102 75.5924C67.2729 75.7682 65.7989 76.3835 65.0346 76.9989C64.2157 77.6142 63.0693 78.2296 62.4142 78.3614C61.8137 78.5372 60.7218 79.1086 60.0667 79.68L58.8657 80.691L59.0294 121.304C59.1386 143.632 59.4116 162.269 59.6845 162.708C60.4488 163.983 64.7617 165.785 66.454 165.565C67.2729 165.433 70.1663 164.774 72.8413 164.115C87.9635 160.423 95.4972 159.324 105.324 159.368C114.55 159.412 121.21 160.555 127.707 163.236C129.836 164.071 131.801 164.774 132.129 164.774C132.456 164.774 134.749 166.444 137.26 168.466C142.174 172.51 144.358 173.389 148.343 172.862C150.09 172.642 151.345 171.895 155.058 168.994C161.827 163.675 169.907 160.73 180.934 159.456C189.669 158.445 202.881 159.895 217.621 163.456C226.519 165.653 228.539 165.697 231.16 163.851L233.07 162.489V121.172V79.8998L231.323 79.1526C230.395 78.757 228.703 77.79 227.611 76.9989C225.973 75.8121 224.663 75.4165 222.043 75.1528C221.824 75.1089 221.606 74.1858 221.497 73.043C221.333 71.0651 221.169 70.8893 219.04 69.9223C217.511 69.263 214.946 68.7356 211.779 68.384L206.866 67.9005V66.6258C206.866 65.7468 206.265 64.8677 205.01 63.8568C203.481 62.6261 202.717 62.3623 200.915 62.3623H198.677V59.7251C198.677 56.6923 199.168 56.8681 192.126 57.5274C170.18 59.7251 153.474 69.4389 147.633 83.4161L146.432 86.2731L145.449 83.8556C141.246 73.5705 132.074 65.8347 118.59 61.2635C113.185 59.4614 104.396 57.7472 98.1177 57.2637L93.8595 57V99.8547ZM202.171 64.4721C202.389 64.7358 202.717 141.918 202.553 146.489C202.499 147.676 202.444 147.72 200.479 147.412C184.374 144.951 168.706 148.248 158.333 156.159C156.422 157.654 153.747 159.983 152.437 161.39C151.072 162.796 149.817 163.851 149.653 163.719C149.162 163.28 153.201 157.17 155.713 154.621C160.462 149.83 168.16 146.138 177.877 144.028C180.825 143.369 184.428 143.061 190.379 142.929L198.677 142.709V103.415V64.1205H200.26C201.188 64.1205 202.007 64.2963 202.171 64.4721ZM211.233 109.876V149.918L209.486 149.61C208.504 149.434 207.521 149.215 207.303 149.083C207.03 148.995 206.866 131.106 206.866 109.349V69.8344H209.05H211.233V109.876ZM217.948 71.4607L219.422 72.0761V111.81V151.588H218.057C216.201 151.588 214.072 150.753 213.854 149.874C213.799 149.478 213.745 131.413 213.854 109.7L214.018 70.23L215.219 70.5377C215.874 70.6695 217.075 71.1091 217.948 71.4607ZM119.9 74.8891C122.084 75.7242 125.086 77.3065 126.615 78.4493L129.345 80.4712L129.454 89.4817L129.618 98.4922L133.439 99.4591C137.697 100.558 141.792 102.184 144.521 103.811L146.377 104.909L148.725 103.459C151.618 101.701 155.822 100.074 160.08 99.0636L163.192 98.3603V89.4377V80.5152L165.539 78.801C166.795 77.834 168.706 76.6472 169.798 76.0758C172.309 74.8451 178.915 72.8233 179.133 73.2628C179.242 73.4386 179.406 86.7566 179.515 102.844L179.679 132.117L175.694 132.864C173.455 133.303 169.961 134.226 167.832 134.93C165.758 135.633 163.847 136.204 163.629 136.204C163.356 136.204 163.192 130.666 163.192 123.897V111.59L161.718 111.854C159.589 112.25 150.636 115.634 148.179 116.997L146.104 118.139L143.757 116.821C141.027 115.326 133.057 112.206 130.873 111.766L129.345 111.502V123.853C129.345 130.666 129.235 136.204 129.072 136.204C128.908 136.204 127.379 135.721 125.632 135.149C123.94 134.578 120.501 133.655 118.044 133.084L113.513 132.117V102.492V72.8672L114.768 73.131C115.423 73.3068 117.771 74.0979 119.9 74.8891ZM69.8388 114.403C69.8388 151.236 69.8388 151.456 70.9852 152.643C72.35 154.049 73.4964 154.093 78.5736 152.687C83.2139 151.412 92.2217 150.006 98.2269 149.61C108.654 148.907 121.702 151.676 129.181 156.159C132.511 158.137 132.074 158.313 128.144 156.643C120.501 153.346 109.637 151.808 99.2095 152.467C92.44 152.907 86.3803 154.006 76.8266 156.511C72.1862 157.698 69.4566 158.181 68.5285 158.005L67.1091 157.742V117.788C67.1091 86.2291 67.2729 77.79 67.8188 77.6142C69.8933 76.911 69.8388 76.0319 69.8388 114.403ZM224.772 77.834C225.264 78.2296 225.427 87.7675 225.427 118.051V157.742L224.117 158.005C223.298 158.181 220.132 157.61 215.764 156.511C197.312 151.852 186.94 151.105 174.82 153.61C172.09 154.181 168.051 155.324 165.867 156.159C163.683 156.994 161.773 157.654 161.718 157.566C161.609 157.478 162.373 156.906 163.356 156.291C167.123 154.006 172.473 151.984 177.659 150.929C186.994 148.995 200.424 149.566 211.506 152.335C217.73 153.874 219.804 154.049 221.115 153.082C222.152 152.335 222.206 151.676 222.152 115.151C222.152 94.7122 222.097 77.834 222.152 77.6142C222.152 77.1307 224.063 77.2626 224.772 77.834ZM64.3795 119.458V158.533L65.9081 159.324C68.1464 160.555 71.0398 160.291 79.1195 158.313C89.765 155.632 95.0605 154.929 103.686 154.929C109.473 154.929 112.093 155.148 115.915 155.896C122.466 157.214 130 160.247 133.712 163.06L136.715 165.258L134.258 163.983C127.379 160.379 119.409 158.137 110.729 157.346C101.557 156.511 90.6931 157.786 75.1888 161.522C70.7668 162.576 66.5632 163.456 65.7989 163.456C65.0892 163.456 63.8882 163.06 63.0693 162.532L61.6499 161.653V121.48C61.6499 85.4819 61.7591 81.2624 62.5234 80.647C62.9601 80.2514 63.6152 80.0317 63.8882 80.1635C64.1611 80.3393 64.3795 96.2066 64.3795 119.458ZM229.631 80.2954C230.122 80.5591 230.286 90.2289 230.395 121.26C230.45 160.379 230.45 161.873 229.467 162.445C227.502 163.631 226.028 163.499 217.511 161.478C204.136 158.313 196.493 157.17 187.759 157.17C175.857 157.17 166.904 159.368 157.187 164.642L155.822 165.389L157.187 164.159C158.988 162.532 164.884 159.412 168.76 158.049C173.674 156.291 180.498 155.06 186.667 154.797C193.873 154.489 202.116 155.588 214.4 158.401C223.517 160.511 224.936 160.555 227.011 159.016L228.157 158.137V119.062C228.157 97.5252 228.321 79.9438 228.594 79.9438C228.812 79.9438 229.249 80.1196 229.631 80.2954Z"/>
<path d="M119.9 74.8891C122.084 75.7242 125.086 77.3065 126.615 78.4493L129.345 80.4712L129.454 89.4817L129.618 98.4922L133.439 99.4591C137.697 100.558 141.792 102.184 144.521 103.811L146.377 104.909L148.725 103.459C151.618 101.701 155.822 100.074 160.08 99.0636L163.192 98.3603V89.4377V80.5152L165.539 78.801C166.795 77.834 168.706 76.6472 169.798 76.0758C172.309 74.8451 178.915 72.8233 179.133 73.2628C179.242 73.4386 179.406 86.7566 179.515 102.844L179.679 132.117L175.694 132.864C173.455 133.303 169.961 134.226 167.832 134.93C165.758 135.633 163.847 136.204 163.629 136.204C163.356 136.204 163.192 130.666 163.192 123.897V111.59L161.718 111.854C159.589 112.25 150.636 115.634 148.179 116.997L146.104 118.139L143.757 116.821C141.027 115.326 133.057 112.206 130.873 111.766L129.345 111.502V123.853C129.345 130.666 129.235 136.204 129.072 136.204C128.908 136.204 127.379 135.721 125.632 135.149C123.94 134.578 120.501 133.655 118.044 133.084L113.513 132.117V102.492V72.8672L114.768 73.131C115.423 73.3068 117.771 74.0979 119.9 74.8891Z"/>
</mask>
<path d="M93.8595 99.8547V142.709L102.485 142.929C112.53 143.193 118.535 144.292 125.469 147.193C132.566 150.182 139.007 155.588 141.901 161.038C143.539 164.115 142.993 164.335 140.481 161.653C129.29 149.786 113.622 144.863 93.8595 146.929C89.2191 147.456 85.2884 148.16 81.5761 149.259C78.5736 150.094 75.571 150.841 74.8613 150.885L73.6056 150.929L73.6602 110.579C73.7148 72.164 73.6602 70.274 72.7322 70.274C70.9852 70.274 70.4393 70.8893 70.2755 73.131C70.1117 75.1968 70.0025 75.3286 68.3102 75.5924C67.2729 75.7682 65.7989 76.3835 65.0346 76.9989C64.2157 77.6142 63.0693 78.2296 62.4142 78.3614C61.8137 78.5372 60.7218 79.1086 60.0667 79.68L58.8657 80.691L59.0294 121.304C59.1386 143.632 59.4116 162.269 59.6845 162.708C60.4488 163.983 64.7617 165.785 66.454 165.565C67.2729 165.433 70.1663 164.774 72.8413 164.115C87.9635 160.423 95.4972 159.324 105.324 159.368C114.55 159.412 121.21 160.555 127.707 163.236C129.836 164.071 131.801 164.774 132.129 164.774C132.456 164.774 134.749 166.444 137.26 168.466C142.174 172.51 144.358 173.389 148.343 172.862C150.09 172.642 151.345 171.895 155.058 168.994C161.827 163.675 169.907 160.73 180.934 159.456C189.669 158.445 202.881 159.895 217.621 163.456C226.519 165.653 228.539 165.697 231.16 163.851L233.07 162.489V121.172V79.8998L231.323 79.1526C230.395 78.757 228.703 77.79 227.611 76.9989C225.973 75.8121 224.663 75.4165 222.043 75.1528C221.824 75.1089 221.606 74.1858 221.497 73.043C221.333 71.0651 221.169 70.8893 219.04 69.9223C217.511 69.263 214.946 68.7356 211.779 68.384L206.866 67.9005V66.6258C206.866 65.7468 206.265 64.8677 205.01 63.8568C203.481 62.6261 202.717 62.3623 200.915 62.3623H198.677V59.7251C198.677 56.6923 199.168 56.8681 192.126 57.5274C170.18 59.7251 153.474 69.4389 147.633 83.4161L146.432 86.2731L145.449 83.8556C141.246 73.5705 132.074 65.8347 118.59 61.2635C113.185 59.4614 104.396 57.7472 98.1177 57.2637L93.8595 57V99.8547ZM202.171 64.4721C202.389 64.7358 202.717 141.918 202.553 146.489C202.499 147.676 202.444 147.72 200.479 147.412C184.374 144.951 168.706 148.248 158.333 156.159C156.422 157.654 153.747 159.983 152.437 161.39C151.072 162.796 149.817 163.851 149.653 163.719C149.162 163.28 153.201 157.17 155.713 154.621C160.462 149.83 168.16 146.138 177.877 144.028C180.825 143.369 184.428 143.061 190.379 142.929L198.677 142.709V103.415V64.1205H200.26C201.188 64.1205 202.007 64.2963 202.171 64.4721ZM211.233 109.876V149.918L209.486 149.61C208.504 149.434 207.521 149.215 207.303 149.083C207.03 148.995 206.866 131.106 206.866 109.349V69.8344H209.05H211.233V109.876ZM217.948 71.4607L219.422 72.0761V111.81V151.588H218.057C216.201 151.588 214.072 150.753 213.854 149.874C213.799 149.478 213.745 131.413 213.854 109.7L214.018 70.23L215.219 70.5377C215.874 70.6695 217.075 71.1091 217.948 71.4607ZM119.9 74.8891C122.084 75.7242 125.086 77.3065 126.615 78.4493L129.345 80.4712L129.454 89.4817L129.618 98.4922L133.439 99.4591C137.697 100.558 141.792 102.184 144.521 103.811L146.377 104.909L148.725 103.459C151.618 101.701 155.822 100.074 160.08 99.0636L163.192 98.3603V89.4377V80.5152L165.539 78.801C166.795 77.834 168.706 76.6472 169.798 76.0758C172.309 74.8451 178.915 72.8233 179.133 73.2628C179.242 73.4386 179.406 86.7566 179.515 102.844L179.679 132.117L175.694 132.864C173.455 133.303 169.961 134.226 167.832 134.93C165.758 135.633 163.847 136.204 163.629 136.204C163.356 136.204 163.192 130.666 163.192 123.897V111.59L161.718 111.854C159.589 112.25 150.636 115.634 148.179 116.997L146.104 118.139L143.757 116.821C141.027 115.326 133.057 112.206 130.873 111.766L129.345 111.502V123.853C129.345 130.666 129.235 136.204 129.072 136.204C128.908 136.204 127.379 135.721 125.632 135.149C123.94 134.578 120.501 133.655 118.044 133.084L113.513 132.117V102.492V72.8672L114.768 73.131C115.423 73.3068 117.771 74.0979 119.9 74.8891ZM69.8388 114.403C69.8388 151.236 69.8388 151.456 70.9852 152.643C72.35 154.049 73.4964 154.093 78.5736 152.687C83.2139 151.412 92.2217 150.006 98.2269 149.61C108.654 148.907 121.702 151.676 129.181 156.159C132.511 158.137 132.074 158.313 128.144 156.643C120.501 153.346 109.637 151.808 99.2095 152.467C92.44 152.907 86.3803 154.006 76.8266 156.511C72.1862 157.698 69.4566 158.181 68.5285 158.005L67.1091 157.742V117.788C67.1091 86.2291 67.2729 77.79 67.8188 77.6142C69.8933 76.911 69.8388 76.0319 69.8388 114.403ZM224.772 77.834C225.264 78.2296 225.427 87.7675 225.427 118.051V157.742L224.117 158.005C223.298 158.181 220.132 157.61 215.764 156.511C197.312 151.852 186.94 151.105 174.82 153.61C172.09 154.181 168.051 155.324 165.867 156.159C163.683 156.994 161.773 157.654 161.718 157.566C161.609 157.478 162.373 156.906 163.356 156.291C167.123 154.006 172.473 151.984 177.659 150.929C186.994 148.995 200.424 149.566 211.506 152.335C217.73 153.874 219.804 154.049 221.115 153.082C222.152 152.335 222.206 151.676 222.152 115.151C222.152 94.7122 222.097 77.834 222.152 77.6142C222.152 77.1307 224.063 77.2626 224.772 77.834ZM64.3795 119.458V158.533L65.9081 159.324C68.1464 160.555 71.0398 160.291 79.1195 158.313C89.765 155.632 95.0605 154.929 103.686 154.929C109.473 154.929 112.093 155.148 115.915 155.896C122.466 157.214 130 160.247 133.712 163.06L136.715 165.258L134.258 163.983C127.379 160.379 119.409 158.137 110.729 157.346C101.557 156.511 90.6931 157.786 75.1888 161.522C70.7668 162.576 66.5632 163.456 65.7989 163.456C65.0892 163.456 63.8882 163.06 63.0693 162.532L61.6499 161.653V121.48C61.6499 85.4819 61.7591 81.2624 62.5234 80.647C62.9601 80.2514 63.6152 80.0317 63.8882 80.1635C64.1611 80.3393 64.3795 96.2066 64.3795 119.458ZM229.631 80.2954C230.122 80.5591 230.286 90.2289 230.395 121.26C230.45 160.379 230.45 161.873 229.467 162.445C227.502 163.631 226.028 163.499 217.511 161.478C204.136 158.313 196.493 157.17 187.759 157.17C175.857 157.17 166.904 159.368 157.187 164.642L155.822 165.389L157.187 164.159C158.988 162.532 164.884 159.412 168.76 158.049C173.674 156.291 180.498 155.06 186.667 154.797C193.873 154.489 202.116 155.588 214.4 158.401C223.517 160.511 224.936 160.555 227.011 159.016L228.157 158.137V119.062C228.157 97.5252 228.321 79.9438 228.594 79.9438C228.812 79.9438 229.249 80.1196 229.631 80.2954Z" fill="white"/>
<path d="M93.8595 99.8547V142.709L102.485 142.929C112.53 143.193 118.535 144.292 125.469 147.193C132.566 150.182 139.007 155.588 141.901 161.038C143.539 164.115 142.993 164.335 140.481 161.653C129.29 149.786 113.622 144.863 93.8595 146.929C89.2191 147.456 85.2884 148.16 81.5761 149.259C78.5736 150.094 75.571 150.841 74.8613 150.885L73.6056 150.929L73.6602 110.579C73.7148 72.164 73.6602 70.274 72.7322 70.274C70.9852 70.274 70.4393 70.8893 70.2755 73.131C70.1117 75.1968 70.0025 75.3286 68.3102 75.5924C67.2729 75.7682 65.7989 76.3835 65.0346 76.9989C64.2157 77.6142 63.0693 78.2296 62.4142 78.3614C61.8137 78.5372 60.7218 79.1086 60.0667 79.68L58.8657 80.691L59.0294 121.304C59.1386 143.632 59.4116 162.269 59.6845 162.708C60.4488 163.983 64.7617 165.785 66.454 165.565C67.2729 165.433 70.1663 164.774 72.8413 164.115C87.9635 160.423 95.4972 159.324 105.324 159.368C114.55 159.412 121.21 160.555 127.707 163.236C129.836 164.071 131.801 164.774 132.129 164.774C132.456 164.774 134.749 166.444 137.26 168.466C142.174 172.51 144.358 173.389 148.343 172.862C150.09 172.642 151.345 171.895 155.058 168.994C161.827 163.675 169.907 160.73 180.934 159.456C189.669 158.445 202.881 159.895 217.621 163.456C226.519 165.653 228.539 165.697 231.16 163.851L233.07 162.489V121.172V79.8998L231.323 79.1526C230.395 78.757 228.703 77.79 227.611 76.9989C225.973 75.8121 224.663 75.4165 222.043 75.1528C221.824 75.1089 221.606 74.1858 221.497 73.043C221.333 71.0651 221.169 70.8893 219.04 69.9223C217.511 69.263 214.946 68.7356 211.779 68.384L206.866 67.9005V66.6258C206.866 65.7468 206.265 64.8677 205.01 63.8568C203.481 62.6261 202.717 62.3623 200.915 62.3623H198.677V59.7251C198.677 56.6923 199.168 56.8681 192.126 57.5274C170.18 59.7251 153.474 69.4389 147.633 83.4161L146.432 86.2731L145.449 83.8556C141.246 73.5705 132.074 65.8347 118.59 61.2635C113.185 59.4614 104.396 57.7472 98.1177 57.2637L93.8595 57V99.8547ZM202.171 64.4721C202.389 64.7358 202.717 141.918 202.553 146.489C202.499 147.676 202.444 147.72 200.479 147.412C184.374 144.951 168.706 148.248 158.333 156.159C156.422 157.654 153.747 159.983 152.437 161.39C151.072 162.796 149.817 163.851 149.653 163.719C149.162 163.28 153.201 157.17 155.713 154.621C160.462 149.83 168.16 146.138 177.877 144.028C180.825 143.369 184.428 143.061 190.379 142.929L198.677 142.709V103.415V64.1205H200.26C201.188 64.1205 202.007 64.2963 202.171 64.4721ZM211.233 109.876V149.918L209.486 149.61C208.504 149.434 207.521 149.215 207.303 149.083C207.03 148.995 206.866 131.106 206.866 109.349V69.8344H209.05H211.233V109.876ZM217.948 71.4607L219.422 72.0761V111.81V151.588H218.057C216.201 151.588 214.072 150.753 213.854 149.874C213.799 149.478 213.745 131.413 213.854 109.7L214.018 70.23L215.219 70.5377C215.874 70.6695 217.075 71.1091 217.948 71.4607ZM119.9 74.8891C122.084 75.7242 125.086 77.3065 126.615 78.4493L129.345 80.4712L129.454 89.4817L129.618 98.4922L133.439 99.4591C137.697 100.558 141.792 102.184 144.521 103.811L146.377 104.909L148.725 103.459C151.618 101.701 155.822 100.074 160.08 99.0636L163.192 98.3603V89.4377V80.5152L165.539 78.801C166.795 77.834 168.706 76.6472 169.798 76.0758C172.309 74.8451 178.915 72.8233 179.133 73.2628C179.242 73.4386 179.406 86.7566 179.515 102.844L179.679 132.117L175.694 132.864C173.455 133.303 169.961 134.226 167.832 134.93C165.758 135.633 163.847 136.204 163.629 136.204C163.356 136.204 163.192 130.666 163.192 123.897V111.59L161.718 111.854C159.589 112.25 150.636 115.634 148.179 116.997L146.104 118.139L143.757 116.821C141.027 115.326 133.057 112.206 130.873 111.766L129.345 111.502V123.853C129.345 130.666 129.235 136.204 129.072 136.204C128.908 136.204 127.379 135.721 125.632 135.149C123.94 134.578 120.501 133.655 118.044 133.084L113.513 132.117V102.492V72.8672L114.768 73.131C115.423 73.3068 117.771 74.0979 119.9 74.8891ZM69.8388 114.403C69.8388 151.236 69.8388 151.456 70.9852 152.643C72.35 154.049 73.4964 154.093 78.5736 152.687C83.2139 151.412 92.2217 150.006 98.2269 149.61C108.654 148.907 121.702 151.676 129.181 156.159C132.511 158.137 132.074 158.313 128.144 156.643C120.501 153.346 109.637 151.808 99.2095 152.467C92.44 152.907 86.3803 154.006 76.8266 156.511C72.1862 157.698 69.4566 158.181 68.5285 158.005L67.1091 157.742V117.788C67.1091 86.2291 67.2729 77.79 67.8188 77.6142C69.8933 76.911 69.8388 76.0319 69.8388 114.403ZM224.772 77.834C225.264 78.2296 225.427 87.7675 225.427 118.051V157.742L224.117 158.005C223.298 158.181 220.132 157.61 215.764 156.511C197.312 151.852 186.94 151.105 174.82 153.61C172.09 154.181 168.051 155.324 165.867 156.159C163.683 156.994 161.773 157.654 161.718 157.566C161.609 157.478 162.373 156.906 163.356 156.291C167.123 154.006 172.473 151.984 177.659 150.929C186.994 148.995 200.424 149.566 211.506 152.335C217.73 153.874 219.804 154.049 221.115 153.082C222.152 152.335 222.206 151.676 222.152 115.151C222.152 94.7122 222.097 77.834 222.152 77.6142C222.152 77.1307 224.063 77.2626 224.772 77.834ZM64.3795 119.458V158.533L65.9081 159.324C68.1464 160.555 71.0398 160.291 79.1195 158.313C89.765 155.632 95.0605 154.929 103.686 154.929C109.473 154.929 112.093 155.148 115.915 155.896C122.466 157.214 130 160.247 133.712 163.06L136.715 165.258L134.258 163.983C127.379 160.379 119.409 158.137 110.729 157.346C101.557 156.511 90.6931 157.786 75.1888 161.522C70.7668 162.576 66.5632 163.456 65.7989 163.456C65.0892 163.456 63.8882 163.06 63.0693 162.532L61.6499 161.653V121.48C61.6499 85.4819 61.7591 81.2624 62.5234 80.647C62.9601 80.2514 63.6152 80.0317 63.8882 80.1635C64.1611 80.3393 64.3795 96.2066 64.3795 119.458ZM229.631 80.2954C230.122 80.5591 230.286 90.2289 230.395 121.26C230.45 160.379 230.45 161.873 229.467 162.445C227.502 163.631 226.028 163.499 217.511 161.478C204.136 158.313 196.493 157.17 187.759 157.17C175.857 157.17 166.904 159.368 157.187 164.642L155.822 165.389L157.187 164.159C158.988 162.532 164.884 159.412 168.76 158.049C173.674 156.291 180.498 155.06 186.667 154.797C193.873 154.489 202.116 155.588 214.4 158.401C223.517 160.511 224.936 160.555 227.011 159.016L228.157 158.137V119.062C228.157 97.5252 228.321 79.9438 228.594 79.9438C228.812 79.9438 229.249 80.1196 229.631 80.2954Z" stroke="white" stroke-width="6" mask="url(#path-1-inside-1_212_4)"/>
<path d="M119.9 74.8891C122.084 75.7242 125.086 77.3065 126.615 78.4493L129.345 80.4712L129.454 89.4817L129.618 98.4922L133.439 99.4591C137.697 100.558 141.792 102.184 144.521 103.811L146.377 104.909L148.725 103.459C151.618 101.701 155.822 100.074 160.08 99.0636L163.192 98.3603V89.4377V80.5152L165.539 78.801C166.795 77.834 168.706 76.6472 169.798 76.0758C172.309 74.8451 178.915 72.8233 179.133 73.2628C179.242 73.4386 179.406 86.7566 179.515 102.844L179.679 132.117L175.694 132.864C173.455 133.303 169.961 134.226 167.832 134.93C165.758 135.633 163.847 136.204 163.629 136.204C163.356 136.204 163.192 130.666 163.192 123.897V111.59L161.718 111.854C159.589 112.25 150.636 115.634 148.179 116.997L146.104 118.139L143.757 116.821C141.027 115.326 133.057 112.206 130.873 111.766L129.345 111.502V123.853C129.345 130.666 129.235 136.204 129.072 136.204C128.908 136.204 127.379 135.721 125.632 135.149C123.94 134.578 120.501 133.655 118.044 133.084L113.513 132.117V102.492V72.8672L114.768 73.131C115.423 73.3068 117.771 74.0979 119.9 74.8891Z" stroke="white" stroke-width="6" mask="url(#path-1-inside-1_212_4)"/>
<path d="M80.6155 71V70.699H81.3505C81.5232 70.699 81.6702 70.6547 81.7915 70.566C81.9128 70.4727 81.9735 70.3117 81.9735 70.083V68.025C81.9735 67.857 81.9128 67.71 81.7915 67.584C81.6702 67.458 81.5232 67.395 81.3505 67.395H80.6155V67.094H86.2365C86.5258 67.094 86.7965 67.1033 87.0485 67.122C87.3005 67.136 87.5222 67.1733 87.7135 67.234C87.9048 67.29 88.0542 67.381 88.1615 67.507C88.2688 67.6283 88.3225 67.794 88.3225 68.004C88.3225 68.1907 88.2758 68.347 88.1825 68.473C88.0892 68.5943 87.9818 68.69 87.8605 68.76C87.7392 68.8253 87.6388 68.872 87.5595 68.9V68.928C87.6388 68.942 87.7392 68.97 87.8605 69.012C87.9865 69.054 88.1125 69.1147 88.2385 69.194C88.3645 69.2687 88.4695 69.3667 88.5535 69.488C88.6375 69.6093 88.6795 69.7587 88.6795 69.936C88.6795 70.1507 88.6165 70.328 88.4905 70.468C88.3692 70.6033 88.2105 70.7107 88.0145 70.79C87.8232 70.8693 87.6202 70.9253 87.4055 70.958C87.1955 70.986 87.0042 71 86.8315 71H80.6155ZM82.4145 70.699H82.7645V67.395H82.4145V70.699ZM84.3395 68.809H85.2495C85.3662 68.809 85.4828 68.7857 85.5995 68.739C85.7162 68.6877 85.8142 68.6107 85.8935 68.508C85.9728 68.4007 86.0125 68.2653 86.0125 68.102C86.0125 67.8733 85.9262 67.6983 85.7535 67.577C85.5808 67.4557 85.3358 67.395 85.0185 67.395C84.8085 67.395 84.6428 67.4463 84.5215 67.549C84.4002 67.6517 84.3395 67.7893 84.3395 67.962V68.809ZM86.3345 68.83C86.4978 68.7647 86.6355 68.6667 86.7475 68.536C86.8642 68.4053 86.9225 68.2723 86.9225 68.137C86.9225 68.0017 86.8642 67.8687 86.7475 67.738C86.6355 67.6073 86.4978 67.5117 86.3345 67.451L86.3065 67.472C86.3718 67.5653 86.4255 67.6703 86.4675 67.787C86.5142 67.899 86.5375 68.0157 86.5375 68.137C86.5375 68.2537 86.5142 68.3703 86.4675 68.487C86.4255 68.6037 86.3718 68.7087 86.3065 68.802L86.3345 68.83ZM86.4885 70.72C86.6892 70.6407 86.8502 70.5263 86.9715 70.377C87.0928 70.223 87.1535 70.0597 87.1535 69.887C87.1535 69.7143 87.0928 69.551 86.9715 69.397C86.8502 69.243 86.6892 69.1287 86.4885 69.054L86.4675 69.082C86.5608 69.1847 86.6355 69.306 86.6915 69.446C86.7475 69.586 86.7755 69.733 86.7755 69.887C86.7755 70.041 86.7475 70.188 86.6915 70.328C86.6355 70.468 86.5608 70.5893 86.4675 70.692L86.4885 70.72ZM84.8155 70.699H85.3615C85.4922 70.699 85.6252 70.6757 85.7605 70.629C85.8958 70.5823 86.0102 70.5007 86.1035 70.384C86.1968 70.2627 86.2435 70.097 86.2435 69.887C86.2435 69.5977 86.1502 69.39 85.9635 69.264C85.7815 69.138 85.5598 69.075 85.2985 69.075H84.3395V70.111C84.3395 70.2837 84.3745 70.426 84.4445 70.538C84.5145 70.6453 84.6382 70.699 84.8155 70.699ZM81.928 79V78.699H82.67C82.8427 78.699 82.9897 78.6547 83.111 78.566C83.237 78.4727 83.3 78.3117 83.3 78.083V76.025C83.3 75.857 83.237 75.71 83.111 75.584C82.9897 75.458 82.8427 75.395 82.67 75.395H81.928V75.094H87.031V75.395H86.289C86.1163 75.395 85.967 75.458 85.841 75.584C85.7197 75.71 85.659 75.857 85.659 76.025V78.083C85.659 78.3117 85.7197 78.4727 85.841 78.566C85.967 78.6547 86.1163 78.699 86.289 78.699H87.031V79H81.928ZM83.734 78.699H84.091V75.395H83.734V78.699ZM80.6155 87V86.699H81.3505C81.5232 86.699 81.6702 86.6547 81.7915 86.566C81.9128 86.4727 81.9735 86.3117 81.9735 86.083V84.025C81.9735 83.857 81.9128 83.71 81.7915 83.584C81.6702 83.458 81.5232 83.395 81.3505 83.395H80.6155V83.094H86.2365C86.5258 83.094 86.7965 83.1033 87.0485 83.122C87.3005 83.136 87.5222 83.1733 87.7135 83.234C87.9048 83.29 88.0542 83.381 88.1615 83.507C88.2688 83.6283 88.3225 83.794 88.3225 84.004C88.3225 84.1907 88.2758 84.347 88.1825 84.473C88.0892 84.5943 87.9818 84.69 87.8605 84.76C87.7392 84.8253 87.6388 84.872 87.5595 84.9V84.928C87.6388 84.942 87.7392 84.97 87.8605 85.012C87.9865 85.054 88.1125 85.1147 88.2385 85.194C88.3645 85.2687 88.4695 85.3667 88.5535 85.488C88.6375 85.6093 88.6795 85.7587 88.6795 85.936C88.6795 86.1507 88.6165 86.328 88.4905 86.468C88.3692 86.6033 88.2105 86.7107 88.0145 86.79C87.8232 86.8693 87.6202 86.9253 87.4055 86.958C87.1955 86.986 87.0042 87 86.8315 87H80.6155ZM82.4145 86.699H82.7645V83.395H82.4145V86.699ZM84.3395 84.809H85.2495C85.3662 84.809 85.4828 84.7857 85.5995 84.739C85.7162 84.6877 85.8142 84.6107 85.8935 84.508C85.9728 84.4007 86.0125 84.2653 86.0125 84.102C86.0125 83.8733 85.9262 83.6983 85.7535 83.577C85.5808 83.4557 85.3358 83.395 85.0185 83.395C84.8085 83.395 84.6428 83.4463 84.5215 83.549C84.4002 83.6517 84.3395 83.7893 84.3395 83.962V84.809ZM86.3345 84.83C86.4978 84.7647 86.6355 84.6667 86.7475 84.536C86.8642 84.4053 86.9225 84.2723 86.9225 84.137C86.9225 84.0017 86.8642 83.8687 86.7475 83.738C86.6355 83.6073 86.4978 83.5117 86.3345 83.451L86.3065 83.472C86.3718 83.5653 86.4255 83.6703 86.4675 83.787C86.5142 83.899 86.5375 84.0157 86.5375 84.137C86.5375 84.2537 86.5142 84.3703 86.4675 84.487C86.4255 84.6037 86.3718 84.7087 86.3065 84.802L86.3345 84.83ZM86.4885 86.72C86.6892 86.6407 86.8502 86.5263 86.9715 86.377C87.0928 86.223 87.1535 86.0597 87.1535 85.887C87.1535 85.7143 87.0928 85.551 86.9715 85.397C86.8502 85.243 86.6892 85.1287 86.4885 85.054L86.4675 85.082C86.5608 85.1847 86.6355 85.306 86.6915 85.446C86.7475 85.586 86.7755 85.733 86.7755 85.887C86.7755 86.041 86.7475 86.188 86.6915 86.328C86.6355 86.468 86.5608 86.5893 86.4675 86.692L86.4885 86.72ZM84.8155 86.699H85.3615C85.4922 86.699 85.6252 86.6757 85.7605 86.629C85.8958 86.5823 86.0102 86.5007 86.1035 86.384C86.1968 86.2627 86.2435 86.097 86.2435 85.887C86.2435 85.5977 86.1502 85.39 85.9635 85.264C85.7815 85.138 85.5598 85.075 85.2985 85.075H84.3395V86.111C84.3395 86.2837 84.3745 86.426 84.4445 86.538C84.5145 86.6453 84.6382 86.699 84.8155 86.699ZM81.2307 95V94.699H81.9657C82.1384 94.699 82.2854 94.6547 82.4067 94.566C82.5281 94.4727 82.5887 94.3117 82.5887 94.083V92.025C82.5887 91.857 82.5281 91.71 82.4067 91.584C82.2854 91.458 82.1384 91.395 81.9657 91.395H81.2307V91.094H86.5997V91.395H85.5847C85.4121 91.395 85.2627 91.458 85.1367 91.584C85.0154 91.71 84.9547 91.857 84.9547 92.025V94.083C84.9547 94.251 84.9967 94.398 85.0807 94.524C85.1694 94.6453 85.3374 94.706 85.5847 94.706C85.7807 94.706 86.0094 94.6687 86.2707 94.594C86.5321 94.5193 86.8074 94.377 87.0967 94.167C87.3907 93.957 87.6801 93.6513 87.9647 93.25H88.1817V95H81.2307ZM83.0297 94.699H83.3797V91.395H83.0297V94.699ZM81.928 103V102.699H82.67C82.8427 102.699 82.9897 102.655 83.111 102.566C83.237 102.473 83.3 102.312 83.3 102.083V100.025C83.3 99.857 83.237 99.71 83.111 99.584C82.9897 99.458 82.8427 99.395 82.67 99.395H81.928V99.094H87.031V99.395H86.289C86.1163 99.395 85.967 99.458 85.841 99.584C85.7197 99.71 85.659 99.857 85.659 100.025V102.083C85.659 102.312 85.7197 102.473 85.841 102.566C85.967 102.655 86.1163 102.699 86.289 102.699H87.031V103H81.928ZM83.734 102.699H84.091V99.395H83.734V102.699ZM84.5016 111.154C83.9696 111.154 83.4702 111.1 83.0036 110.993C82.5416 110.881 82.1332 110.729 81.7786 110.538C81.4286 110.342 81.1532 110.118 80.9526 109.866C80.7519 109.609 80.6516 109.334 80.6516 109.04C80.6516 108.751 80.7402 108.48 80.9176 108.228C81.0996 107.971 81.3586 107.747 81.6946 107.556C82.0306 107.365 82.4342 107.215 82.9056 107.108C83.3816 106.996 83.9136 106.94 84.5016 106.94C85.0896 106.94 85.6192 106.996 86.0906 107.108C86.5666 107.215 86.9702 107.365 87.3016 107.556C87.6376 107.747 87.8942 107.971 88.0716 108.228C88.2536 108.48 88.3446 108.751 88.3446 109.04C88.3446 109.334 88.2442 109.609 88.0436 109.866C87.8476 110.118 87.5722 110.342 87.2176 110.538C86.8676 110.729 86.4592 110.881 85.9926 110.993C85.5306 111.1 85.0336 111.154 84.5016 111.154ZM83.1856 110.846L83.1996 110.797C82.8542 110.704 82.5462 110.573 82.2756 110.405C82.0049 110.237 81.7926 110.039 81.6386 109.81C81.4846 109.577 81.4076 109.322 81.4076 109.047C81.4076 108.762 81.4846 108.506 81.6386 108.277C81.7926 108.048 82.0049 107.85 82.2756 107.682C82.5462 107.514 82.8566 107.383 83.2066 107.29L83.1926 107.248C82.7539 107.337 82.3642 107.467 82.0236 107.64C81.6829 107.813 81.4146 108.018 81.2186 108.256C81.0272 108.489 80.9316 108.751 80.9316 109.04C80.9316 109.329 81.0272 109.593 81.2186 109.831C81.4146 110.069 81.6806 110.274 82.0166 110.447C82.3572 110.62 82.7469 110.753 83.1856 110.846ZM84.5016 110.853C84.8982 110.853 85.2062 110.701 85.4256 110.398C85.6449 110.095 85.7546 109.647 85.7546 109.054C85.7546 108.657 85.7172 108.326 85.6426 108.06C85.5726 107.789 85.4466 107.586 85.2646 107.451C85.0872 107.316 84.8329 107.248 84.5016 107.248C84.1749 107.248 83.9206 107.316 83.7386 107.451C83.5566 107.586 83.4282 107.789 83.3536 108.06C83.2836 108.326 83.2486 108.657 83.2486 109.054C83.2486 109.647 83.3582 110.095 83.5776 110.398C83.7969 110.701 84.1049 110.853 84.5016 110.853ZM85.8876 110.755C86.1302 110.55 86.3216 110.3 86.4616 110.006C86.6062 109.707 86.6786 109.385 86.6786 109.04C86.6786 108.699 86.6086 108.382 86.4686 108.088C86.3286 107.794 86.1372 107.544 85.8946 107.339L85.8666 107.36C85.9692 107.617 86.0486 107.887 86.1046 108.172C86.1652 108.452 86.1956 108.744 86.1956 109.047C86.1956 109.346 86.1652 109.637 86.1046 109.922C86.0486 110.202 85.9669 110.473 85.8596 110.734L85.8876 110.755ZM81.952 119V118.699H82.694C82.8666 118.699 83.0136 118.652 83.135 118.559C83.2563 118.466 83.317 118.305 83.317 118.076V115.668C83.317 115.589 83.3006 115.523 83.268 115.472C83.24 115.421 83.191 115.395 83.121 115.395C83.0463 115.395 82.9506 115.444 82.834 115.542C82.722 115.635 82.603 115.754 82.477 115.899C82.351 116.039 82.232 116.181 82.12 116.326C82.008 116.471 81.917 116.592 81.847 116.69C81.777 116.783 81.742 116.83 81.742 116.83H81.49L81.588 115.094H87.412L87.51 116.83H87.258C87.258 116.83 87.223 116.783 87.153 116.69C87.083 116.592 86.992 116.471 86.88 116.326C86.768 116.181 86.649 116.039 86.523 115.899C86.397 115.754 86.2756 115.635 86.159 115.542C86.047 115.444 85.956 115.395 85.886 115.395C85.8113 115.395 85.7576 115.421 85.725 115.472C85.6923 115.523 85.676 115.589 85.676 115.668V118.076C85.676 118.305 85.7366 118.466 85.858 118.559C85.984 118.652 86.1333 118.699 86.306 118.699H87.048V119H81.952ZM83.758 118.699H84.101V115.395H83.758V118.699ZM80.8684 127V126.699H81.6034C81.7808 126.699 81.9278 126.655 82.0444 126.566C82.1658 126.473 82.2264 126.312 82.2264 126.083V124.018C82.2264 123.85 82.1658 123.705 82.0444 123.584C81.9278 123.458 81.7808 123.395 81.6034 123.395H80.8684V123.094H88.0854V124.494H87.8824C87.7564 124.321 87.5791 124.151 87.3504 123.983C87.1264 123.815 86.8394 123.675 86.4894 123.563C86.1441 123.451 85.7264 123.395 85.2364 123.395C85.0358 123.395 84.8771 123.449 84.7604 123.556C84.6484 123.659 84.5924 123.792 84.5924 123.955V124.235C84.5924 124.356 84.6251 124.473 84.6904 124.585C84.7558 124.692 84.8888 124.746 85.0894 124.746C85.2621 124.746 85.4464 124.713 85.6424 124.648C85.8384 124.578 86.0158 124.485 86.1744 124.368C86.3378 124.251 86.4521 124.125 86.5174 123.99H86.7764V125.838H86.5174C86.4521 125.689 86.3378 125.563 86.1744 125.46C86.0158 125.353 85.8384 125.273 85.6424 125.222C85.4464 125.166 85.2621 125.138 85.0894 125.138C84.8888 125.138 84.7558 125.192 84.6904 125.299C84.6251 125.406 84.5924 125.523 84.5924 125.649V126.118C84.5924 126.291 84.6274 126.431 84.6974 126.538C84.7674 126.645 84.8911 126.699 85.0684 126.699H85.6074C85.8641 126.699 86.1301 126.673 86.4054 126.622C86.6808 126.566 86.9468 126.466 87.2034 126.321C87.4601 126.176 87.6864 125.969 87.8824 125.698H88.0854V127H80.8684ZM82.6604 126.699H83.0174V123.395H82.6604V126.699ZM85.1952 135.154C84.6819 135.154 84.1942 135.112 83.7322 135.028C83.2702 134.949 82.8596 134.825 82.5002 134.657C82.1456 134.484 81.8656 134.265 81.6602 133.999C81.4549 133.728 81.3522 133.406 81.3522 133.033C81.3522 132.73 81.4222 132.464 81.5622 132.235C81.7069 132.006 81.9029 131.81 82.1502 131.647C82.3976 131.479 82.6776 131.344 82.9902 131.241C83.3029 131.138 83.6296 131.064 83.9702 131.017C84.3156 130.966 84.6539 130.94 84.9852 130.94C85.3819 130.94 85.7599 130.984 86.1192 131.073C86.4786 131.162 86.8076 131.26 87.1062 131.367V131.087H87.4352V132.543H87.1202C87.0502 132.445 86.9406 132.324 86.7912 132.179C86.6466 132.03 86.4762 131.885 86.2802 131.745C86.0842 131.6 85.8719 131.481 85.6432 131.388C85.4192 131.29 85.1906 131.241 84.9572 131.241C84.6166 131.241 84.3832 131.323 84.2572 131.486C84.1359 131.649 84.0752 131.852 84.0752 132.095V133.74C84.0752 134.137 84.1592 134.424 84.3272 134.601C84.4952 134.778 84.7916 134.867 85.2162 134.867C85.5802 134.867 85.8952 134.832 86.1612 134.762C86.4319 134.687 86.6606 134.601 86.8472 134.503C87.0339 134.405 87.1832 134.321 87.2952 134.251C87.4119 134.176 87.4959 134.139 87.5472 134.139C87.5752 134.139 87.6079 134.148 87.6452 134.167C87.6872 134.186 87.7082 134.223 87.7082 134.279C87.7082 134.34 87.6522 134.412 87.5402 134.496C87.4329 134.58 87.2789 134.673 87.0782 134.776C86.8776 134.874 86.6279 134.96 86.3292 135.035C86.0306 135.114 85.6526 135.154 85.1952 135.154ZM83.2072 134.706L83.2212 134.678C82.9179 134.505 82.6589 134.281 82.4442 134.006C82.2296 133.731 82.1222 133.411 82.1222 133.047C82.1222 132.678 82.2296 132.356 82.4442 132.081C82.6589 131.806 82.9179 131.582 83.2212 131.409L83.2072 131.381C82.9459 131.488 82.7032 131.626 82.4792 131.794C82.2552 131.957 82.0756 132.146 81.9402 132.361C81.8049 132.571 81.7372 132.8 81.7372 133.047C81.7372 133.29 81.8049 133.518 81.9402 133.733C82.0756 133.943 82.2552 134.132 82.4792 134.3C82.7032 134.463 82.9459 134.599 83.2072 134.706ZM80.2423 143V142.699C80.4337 142.699 80.597 142.676 80.7323 142.629C80.8723 142.578 80.9867 142.522 81.0753 142.461C81.1687 142.4 81.2363 142.347 81.2783 142.3C81.325 142.249 81.3483 142.223 81.3483 142.223L83.1263 139.948L82.9303 139.703C82.879 139.638 82.8277 139.584 82.7763 139.542C82.725 139.495 82.6573 139.46 82.5733 139.437C82.4893 139.409 82.368 139.395 82.2093 139.395H81.7193V139.094H85.1563L88.0543 142.699H88.7473V143H84.2393V142.699H84.7013C84.7947 142.699 84.8717 142.68 84.9323 142.643C84.9977 142.601 85.0303 142.543 85.0303 142.468C85.0303 142.365 84.9767 142.246 84.8693 142.111L84.6523 141.838H82.0343C81.927 142.02 81.8733 142.179 81.8733 142.314C81.8733 142.435 81.913 142.531 81.9923 142.601C82.0763 142.666 82.179 142.699 82.3003 142.699H82.8743V143H80.2423ZM85.9683 142.699H86.3883L83.7283 139.395H83.3013L85.9683 142.699ZM82.2583 141.551H84.4213L83.3223 140.179L82.2583 141.551Z" fill="white"/>
<path d="M303.722 104.16V95.52L308.042 99.84V104.16H303.722ZM303.722 112.8V104.16L308.042 108.48V112.8H303.722ZM243.242 130.08V86.88H264.842L269.162 91.2V108.48H282.122V86.88H303.722L308.042 91.2V95.52H303.722V91.2H286.442V108.48L282.122 112.8H264.842V91.2H247.562V125.76L243.242 130.08ZM303.722 121.44V112.8L308.042 117.12V121.44H303.722ZM303.722 130.08V121.44L308.042 125.76V130.08H303.722ZM303.722 138.72V130.08L308.042 134.4V138.72H303.722ZM303.722 147.36V138.72L308.042 143.04V147.36H303.722ZM243.242 156V130.08H247.562V151.68H264.842V130.08H282.122L286.442 134.4V151.68H299.402L295.082 156H282.122V134.4H269.162V151.68L264.842 156H243.242ZM303.722 151.68V147.36L308.042 151.68H303.722ZM299.402 156V151.68H303.722V156H299.402Z" fill="url(#paint0_linear_212_4)"/>
<path d="M315.307 130V93.7695H334.146V99.4629H321.104V109.09H329.281V114.887H321.104V124.255H334.146V130H315.307ZM338.287 130V93.7695H344.084V124.307H357.748V130H338.287ZM360.75 130V93.7695H379.59V99.4629H366.547V109.09H374.725V114.887H366.547V124.255H379.59V130H360.75ZM383.782 130V102.982H384.196L389.579 111.626V130H383.782ZM383.782 97.4961V93.7695H388.596L406.814 123.013V130H404.02L383.782 97.4961ZM401.018 108.883V93.7695H406.814V117.526H406.4L401.018 108.883ZM410.593 130L417.425 99.6182H418.201L420.582 110.591L416.286 130H410.593ZM420.168 124.824L421.358 119.183H425.24L419.65 93.7695H425.344L433.677 130H427.932L426.793 124.824H420.168Z" fill="white"/>
<g filter="url(#filter0_d_212_4)">
<path d="M312.848 151.427L316.204 135.475L316.615 135.47L318.337 143.107L316.621 151.385L312.848 151.427ZM318.647 149.038L319.427 145.255L320.411 145.244L317.373 132.235L321.173 132.192L325.89 151.281L322.063 151.324L321.491 149.006L318.647 149.038ZM327.558 151.262L327.428 139.122L327.674 139.119L331.376 147.746L331.413 151.219L327.558 151.262ZM327.38 134.638L327.353 132.122L330.36 132.089L335.719 144.689L338.547 138.122L338.82 138.119L338.916 147.005L337.128 151.154L334.476 151.184L327.38 134.638ZM340.436 151.117L340.231 131.978L344.086 131.934L344.292 151.074L340.436 151.117ZM346.315 151.051L349.671 135.098L350.081 135.094L351.804 142.731L350.088 151.009L346.315 151.051ZM352.114 148.662L352.894 144.879L353.878 144.868L350.84 131.859L354.64 131.816L359.357 150.905L355.529 150.948L354.957 148.63L352.114 148.662ZM360.697 150.89L360.655 147.034L366.274 135.513L360.532 135.578L360.491 131.75L370.498 131.638L370.539 135.384L364.92 146.904L370.662 146.84L370.704 150.777L360.697 150.89ZM372.344 150.759L372.303 146.903L377.922 135.383L372.18 135.447L372.139 131.619L382.146 131.507L382.186 135.253L376.568 146.774L382.309 146.709L382.352 150.646L372.344 150.759ZM384.154 145.294L384.057 136.298C384.047 135.332 384.446 134.343 385.256 133.331C386.335 132.007 387.714 131.326 389.39 131.289L389.432 135.144C388.685 135.17 388.197 135.595 387.969 136.418C387.934 136.546 387.916 136.638 387.917 136.692L388.009 145.25C388.017 145.998 388.433 146.503 389.256 146.768C389.384 146.803 389.475 146.82 389.53 146.819L389.571 150.702C388.532 150.714 387.489 150.352 386.442 149.616C384.954 148.539 384.191 147.098 384.154 145.294ZM391.075 150.685L391.034 146.802C391.325 146.799 391.652 146.64 392.013 146.327C392.356 146.013 392.534 145.637 392.548 145.199L392.456 136.641C392.452 136.313 392.294 135.969 391.98 135.607C391.685 135.301 391.328 135.141 390.908 135.127L390.867 131.272C392.708 131.251 394.193 132.028 395.322 133.601C395.969 134.505 396.298 135.358 396.306 136.16L396.403 145.156C396.425 147.179 395.539 148.739 393.746 149.835C392.804 150.392 391.914 150.676 391.075 150.685ZM397.744 135.105L397.704 131.332L409.543 131.199L409.583 134.972L405.591 135.017L405.756 150.383L401.901 150.427L401.736 135.06L397.744 135.105ZM410.404 134.963L410.363 131.19L422.202 131.057L422.243 134.83L418.251 134.875L418.416 150.241L414.561 150.284L414.396 134.918L410.404 134.963ZM423.966 150.179L423.761 131.039L433.713 130.927L433.754 134.755L427.657 134.824L427.699 138.706L431.226 138.667L431.267 142.522L427.74 142.562L427.78 146.28L433.877 146.212L433.919 150.067L423.966 150.179Z" fill="url(#paint1_linear_212_4)"/>
</g>
<defs>
<filter id="filter0_d_212_4" x="309.641" y="130.791" width="127.279" height="27.7735" filterUnits="userSpaceOnUse" color-interpolation-filters="sRGB">
<feFlood flood-opacity="0" result="BackgroundImageFix"/>
<feColorMatrix in="SourceAlpha" type="matrix" values="0 0 0 0 0 0 0 0 0 0 0 0 0 0 0 0 0 0 127 0" result="hardAlpha"/>
<feOffset dy="4"/>
<feGaussianBlur stdDeviation="1.5"/>
<feComposite in2="hardAlpha" operator="out"/>
<feColorMatrix type="matrix" values="0 0 0 0 0 0 0 0 0 0 0 0 0 0 0 0 0 0 0.25 0"/>
<feBlend mode="normal" in2="BackgroundImageFix" result="effect1_dropShadow_212_4"/>
<feBlend mode="normal" in="SourceGraphic" in2="effect1_dropShadow_212_4" result="shape"/>
</filter>
<linearGradient id="paint0_linear_212_4" x1="240" y1="89.799" x2="310.367" y2="148.943" gradientUnits="userSpaceOnUse">
<stop offset="0.563544" stop-color="white"/>
<stop offset="1" stop-color="#3156FA"/>
</linearGradient>
<linearGradient id="paint1_linear_212_4" x1="306.653" y1="127.683" x2="440.236" y2="164.961" gradientUnits="userSpaceOnUse">
<stop offset="0.132572" stop-color="#6774BC"/>
<stop offset="0.986007" stop-color="#D2D9F9"/>
</linearGradient>
</defs>
</svg>
