<svg width="548" height="210" viewBox="0 0 548 210" fill="none" xmlns="http://www.w3.org/2000/svg">
<path d="M248.203 80V52.6562H262.422V56.9531H252.578V64.2188H258.75V68.5938H252.578V75.6641H262.422V80H248.203ZM265.547 80V52.6562H269.922V75.7031H280.234V80H265.547ZM282.5 80V52.6562H296.719V56.9531H286.875V64.2188H293.047V68.5938H286.875V75.6641H296.719V80H282.5ZM299.883 80V59.6094H300.195L304.258 66.1328V80H299.883ZM299.883 55.4688V52.6562H303.516L317.266 74.7266V80H315.156L299.883 55.4688ZM312.891 64.0625V52.6562H317.266V70.5859H316.953L312.891 64.0625ZM320.117 80L325.273 57.0703H325.859L327.656 65.3516L324.414 80H320.117ZM327.344 76.0938L328.242 71.8359H331.172L326.953 52.6562H331.25L337.539 80H333.203L332.344 76.0938H327.344Z" fill="white"/>
<path d="M241.291 60.12V53.64L244.531 56.88V60.12H241.291ZM241.291 66.6V60.12L244.531 63.36V66.6H241.291ZM195.931 79.56V47.16H212.131L215.371 50.4V63.36H225.091V47.16H241.291L244.531 50.4V53.64H241.291V50.4H228.331V63.36L225.091 66.6H212.131V50.4H199.171V76.32L195.931 79.56ZM241.291 73.08V66.6L244.531 69.84V73.08H241.291ZM241.291 79.56V73.08L244.531 76.32V79.56H241.291ZM241.291 86.04V79.56L244.531 82.8V86.04H241.291ZM241.291 92.52V86.04L244.531 89.28V92.52H241.291ZM195.931 99V79.56H199.171V95.76H212.131V79.56H225.091L228.331 82.8V95.76H238.051L234.811 99H225.091V82.8H215.371V95.76L212.131 99H195.931ZM241.291 95.76V92.52L244.531 95.76H241.291ZM238.051 99V95.76H241.291V99H238.051Z" fill="white"/>
<path d="M247.126 97.0623L249.64 85.0984L249.947 85.0951L251.241 90.8234L249.955 97.0312L247.126 97.0623ZM251.474 95.2713L252.058 92.4346L252.797 92.4265L250.515 82.6688L253.366 82.6374L256.907 96.9549L254.036 96.9864L253.607 95.2479L251.474 95.2713ZM258.158 96.9411L258.058 87.8362L258.243 87.8342L261.021 94.305L261.049 96.9094L258.158 96.9411ZM258.021 84.4731L258 82.5865L260.256 82.5618L264.277 92.0133L266.397 87.0883L266.602 87.0861L266.675 93.7507L265.335 96.8623L263.346 96.8841L258.021 84.4731ZM267.817 96.835L267.659 82.4804L270.55 82.4487L270.708 96.8033L267.817 96.835ZM272.226 96.7866L274.74 84.8227L275.047 84.8193L276.341 90.5477L275.055 96.7555L272.226 96.7866ZM276.574 94.9956L277.158 92.1589L277.897 92.1508L275.616 82.393L278.466 82.3617L282.007 96.6791L279.136 96.7107L278.707 94.9721L276.574 94.9956ZM283.012 96.6681L282.98 93.7767L287.192 85.1371L282.886 85.1844L282.854 82.3135L290.36 82.2311L290.391 85.0405L286.179 93.68L290.485 93.6327L290.517 96.5857L283.012 96.6681ZM291.748 96.5721L291.716 93.6807L295.928 85.0411L291.622 85.0885L291.59 82.2175L299.096 82.1351L299.126 84.9445L294.914 93.584L299.221 93.5367L299.253 96.4897L291.748 96.5721ZM300.604 92.4756L300.53 85.7289C300.522 85.0044 300.821 84.2627 301.428 83.5041C302.238 82.5108 303.271 82.0003 304.529 81.9729L304.56 84.8643C304 84.8841 303.634 85.2026 303.463 85.8198C303.437 85.9157 303.424 85.9843 303.425 86.0253L303.495 92.4438C303.501 93.0043 303.813 93.3837 304.431 93.5821C304.527 93.6083 304.595 93.6213 304.636 93.6208L304.668 96.5328C303.889 96.5413 303.107 96.2696 302.321 95.7177C301.205 94.9096 300.632 93.8289 300.604 92.4756ZM305.796 96.5204L305.764 93.6084C305.983 93.606 306.228 93.4871 306.498 93.2517C306.756 93.0164 306.889 92.7347 306.899 92.4064L306.829 85.9879C306.826 85.7418 306.707 85.4833 306.472 85.2125C306.25 84.9824 305.982 84.8623 305.668 84.8521L305.636 81.9607C307.017 81.9455 308.131 82.528 308.978 83.7083C309.464 84.3866 309.71 85.0265 309.717 85.628L309.791 92.3747C309.807 93.8922 309.143 95.0616 307.799 95.8831C307.092 96.301 306.425 96.5135 305.796 96.5204ZM310.795 84.8368L310.764 82.0069L319.643 81.9094L319.674 84.7393L316.68 84.7722L316.807 96.2969L313.915 96.3286L313.789 84.8039L310.795 84.8368ZM320.289 84.7325L320.258 81.9026L329.138 81.8051L329.169 84.635L326.175 84.6679L326.301 96.1926L323.41 96.2243L323.283 84.6996L320.289 84.7325ZM330.464 96.1468L330.307 81.7922L337.771 81.7102L337.802 84.5811L333.23 84.6314L333.262 87.5433L335.907 87.5143L335.939 90.4057L333.293 90.4347L333.324 93.2236L337.897 93.1734L337.929 96.0648L330.464 96.1468Z" fill="white"/>
<path d="M112.674 31.3479C112.267 31.6868 111.657 34.2287 111.251 36.94L110.539 41.9389H106.676C99.3555 41.9389 98.1355 42.8709 96.8139 49.3102C91.0188 77.4398 86.1388 100.401 84.7155 106.925C83.8005 111.246 83.2922 114.974 83.5972 115.313C83.9022 115.567 85.9355 115.059 88.1722 114.127C102.609 108.027 128.127 106.84 149.477 111.331C153.646 112.263 157.204 112.856 157.306 112.771C158.119 112.178 145.411 106.756 139.412 105.061C131.177 102.689 116.537 100.401 109.827 100.401C101.592 100.401 101.694 101.757 107.591 73.966C114.707 41.0916 116.029 35.669 116.741 34.9912C117.961 33.9745 136.057 36.0079 144.902 38.1261C149.782 39.3123 155.882 41.1763 158.627 42.3625C161.372 43.5487 164.321 44.4807 165.134 44.4807C166.049 44.4807 169.811 47.0225 173.674 50.1575L180.689 55.919L181.401 76.2536C181.807 87.4377 182.519 96.9272 183.027 97.2661C183.434 97.6897 184.146 88.878 184.451 77.7787C184.857 66.6794 185.569 56.7662 186.077 55.7495C188.111 51.5978 208.647 39.9054 219.729 36.6858C220.543 36.4316 220.848 36.0079 220.543 35.669C219.831 34.9912 214.925 37.1729 213.4 37.8084C213.782 37.8084 213.4 37.8084 212.638 38.1261C211.494 38.4438 205.597 40.0749 199.497 43.3793C196.447 44.9891 191.466 48.2087 188.517 50.5811L183.027 54.9022L177.537 50.5811C167.472 42.6167 154.052 36.601 139.717 33.5508C131.076 31.6868 113.894 30.3312 112.674 31.3479ZM109.217 44.3113C109.624 44.9044 107.896 54.4786 101.287 86.2515C97.4239 104.553 96.1022 102.604 112.674 103.197C126.094 103.621 141.242 105.908 145.309 108.111C146.631 108.789 146.427 108.874 144.394 108.45C142.971 108.111 133.414 107.688 123.044 107.433C106.574 107.094 103.321 107.264 96.6105 108.704C92.4422 109.636 88.7822 110.229 88.5788 110.06C88.3755 109.975 88.9855 106.078 89.7988 101.502C90.7138 96.9272 92.8488 85.5737 94.5772 76.2536C97.6272 59.7317 99.1522 51.5131 100.271 46.8531C100.576 45.5822 101.592 44.396 102.507 44.2265C105.456 43.5487 108.709 43.6334 109.217 44.3113Z" fill="white"/>
<path d="M71.963 116.895C68.7097 125.199 68.608 125.432 66.7018 131.786C66.7018 132.422 66.7017 132.422 66.9813 132.739C68.9893 132.739 68.9893 132.739 83.3497 130.706C99.3114 128.334 123.508 125.792 142.113 124.69C158.177 123.674 158.685 123.674 162.447 125.453C165.598 126.893 166.668 127.779 169.258 128.609C174.215 130.198 174.596 130.833 181.458 131.469C186.415 131.151 186.135 130.791 191.218 129.435C196.81 127.825 202.808 123.97 203.952 123.335C204.715 123.017 205.096 123.017 205.096 123.017C205.096 123.017 203.952 123.017 202.808 123.017C201.665 123.97 205.842 123.335 212.958 121.894C226 120 226.5 119.5 215.5 120C213.772 119.661 210.535 119.691 208.908 119.776C207.18 119.946 205.202 119.776 203.702 119.739C202 120 201.702 119.739 200.267 120.2C196.202 122.739 190.913 125.199 181.865 125.199C173.325 125.199 172.918 125.114 167.327 121.894L161.633 118.59L150.653 119.183C136.725 119.946 114.866 121.979 103.175 123.589C92.4997 125.029 74.5047 127.995 71.963 128.673C70.743 128.927 70.3363 128.757 70.6413 127.995C70.8447 127.402 71.353 125.961 71.5563 124.775C71.8614 123.589 73.488 118.251 75.1147 112.913C76.843 107.575 78.063 103.085 77.8597 103C77.6564 102.831 75.013 109.1 71.963 116.895Z" fill="white"/>
<path d="M210.902 107.285C210.902 107.65 210.839 108.023 210.711 108.406C210.255 109.682 209.207 110.585 207.566 111.113C208.004 111.168 208.423 111.25 208.824 111.359C211.03 111.943 212.133 113.246 212.133 115.27C212.133 116.181 211.859 117.02 211.312 117.785C210.201 119.262 208.396 120 205.898 120H196.547V119.262H198.734V104.332H196.547V103.594H205.406C206.409 103.594 207.302 103.703 208.086 103.922C209.964 104.469 210.902 105.59 210.902 107.285ZM203.875 104.332H202.562V110.73H204.094C204.422 110.73 204.732 110.694 205.023 110.621C206.299 110.257 206.938 109.217 206.938 107.504C206.919 105.426 205.898 104.368 203.875 104.332ZM204.805 111.496H202.562V119.262H204.395C204.632 119.262 204.868 119.243 205.105 119.207C207.001 118.934 207.949 117.557 207.949 115.078C207.949 114.531 207.867 114.021 207.703 113.547C207.229 112.18 206.263 111.496 204.805 111.496ZM221.566 120H213.363V119.262H215.551V104.332H213.363V103.594H221.566V104.332H219.379V119.262H220.828C221.211 119.298 221.457 119.544 221.566 120ZM237.016 107.285C237.016 107.65 236.952 108.023 236.824 108.406C236.368 109.682 235.32 110.585 233.68 111.113C234.117 111.168 234.536 111.25 234.938 111.359C237.143 111.943 238.246 113.246 238.246 115.27C238.246 116.181 237.973 117.02 237.426 117.785C236.314 119.262 234.509 120 232.012 120H222.66V119.262H224.848V104.332H222.66V103.594H231.52C232.522 103.594 233.415 103.703 234.199 103.922C236.077 104.469 237.016 105.59 237.016 107.285ZM229.988 104.332H228.676V110.73H230.207C230.535 110.73 230.845 110.694 231.137 110.621C232.413 110.257 233.051 109.217 233.051 107.504C233.033 105.426 232.012 104.368 229.988 104.332ZM230.918 111.496H228.676V119.262H230.508C230.745 119.262 230.982 119.243 231.219 119.207C233.115 118.934 234.062 117.557 234.062 115.078C234.062 114.531 233.98 114.021 233.816 113.547C233.342 112.18 232.376 111.496 230.918 111.496ZM252.875 120H239.477V119.262H241.664V104.332H239.477V103.594H247.816V104.332H245.492V119.262H248.309C248.855 119.262 249.339 119.171 249.758 118.988C250.469 118.642 251.016 117.858 251.398 116.637L252.191 114.066H252.984L252.875 120ZM261.734 120H253.531V119.262H255.719V104.332H253.531V103.594H261.734V104.332H259.547V119.262H260.996C261.379 119.298 261.625 119.544 261.734 120ZM271.988 103.32C274.048 103.32 275.844 103.876 277.375 104.988C279.508 106.556 280.574 108.844 280.574 111.852C280.574 114.331 279.727 116.372 278.031 117.977C276.372 119.508 274.331 120.273 271.906 120.273C269.773 120.273 267.914 119.663 266.328 118.441C264.268 116.837 263.238 114.604 263.238 111.742C263.238 109.245 264.104 107.203 265.836 105.617C267.513 104.086 269.564 103.32 271.988 103.32ZM271.988 119.48C272.827 119.48 273.529 119.298 274.094 118.934C275.552 118.004 276.281 115.598 276.281 111.715C276.281 110.074 276.145 108.698 275.871 107.586C275.288 105.271 273.966 104.113 271.906 104.113C271.286 104.113 270.73 104.223 270.238 104.441C268.434 105.207 267.531 107.677 267.531 111.852C267.531 114.039 267.759 115.734 268.215 116.938C268.871 118.633 270.129 119.48 271.988 119.48ZM293.645 120H284.621V119.262H287.219V104.332H286.754C286.134 104.332 285.605 104.451 285.168 104.688C284.53 105.052 284.01 105.818 283.609 106.984L282.762 109.445H281.941L282.051 103.594H296.215L296.324 109.445H295.504L294.656 106.984C294.529 106.638 294.41 106.337 294.301 106.082C293.754 104.915 292.824 104.332 291.512 104.332H291.047V119.262H292.906C293.289 119.298 293.535 119.544 293.645 120ZM311.062 108.844H310.27L309.668 106.957C309.613 106.793 309.549 106.629 309.477 106.465C308.911 105.043 307.882 104.332 306.387 104.332H303.297V111.141H308.547V111.961H303.297V119.262H306.387C306.733 119.262 307.061 119.225 307.371 119.152C308.41 118.879 309.167 118.04 309.641 116.637L310.27 114.75H311.062L310.953 120H297.281V119.262H299.469V104.332H297.281V103.594H310.953L311.062 108.844ZM327.195 118.934C325.464 119.827 323.659 120.273 321.781 120.273C319.138 120.273 317.005 119.426 315.383 117.73C313.87 116.126 313.113 114.148 313.113 111.797C313.113 109.81 313.688 108.051 314.836 106.52C316.458 104.387 318.801 103.32 321.863 103.32C323.777 103.32 325.527 103.749 327.113 104.605C327.095 104.314 327.104 104.077 327.141 103.895C327.232 103.603 327.514 103.457 327.988 103.457L328.07 108.844H327.113C326.822 107.786 326.484 106.921 326.102 106.246C325.281 104.842 324.014 104.141 322.301 104.141C319.056 104.159 317.424 106.665 317.406 111.66C317.406 113.191 317.516 114.477 317.734 115.516C318.318 118.141 319.767 119.453 322.082 119.453C322.665 119.453 323.194 119.389 323.668 119.262C325.382 118.788 326.576 117.284 327.25 114.75H328.152V120.137C327.952 120.137 327.788 120.118 327.66 120.082C327.332 120.009 327.177 119.626 327.195 118.934ZM346.391 120H339.062V119.262H341.004L338.953 114.012H333.512L331.543 119.262H333.074C333.184 119.262 333.284 119.271 333.375 119.289C333.612 119.326 333.73 119.562 333.73 120H328.699V119.262H330.449L336.438 103.594H338.461L344.914 119.262H345.734C345.844 119.262 345.944 119.271 346.035 119.289C346.272 119.326 346.391 119.562 346.391 120ZM338.625 113.191L336.191 106.902L333.84 113.191H338.625Z" fill="#FFED76"/>
</svg>
