<svg width="493" height="210" viewBox="0 0 493 210" fill="none" xmlns="http://www.w3.org/2000/svg">
<mask id="path-1-inside-1_212_4" fill="white">
<path d="M94.7623 99.8547V142.709L103.611 142.929C113.915 143.193 120.075 144.292 127.187 147.193C134.467 150.182 141.075 155.588 144.043 161.038C145.723 164.115 145.163 164.335 142.587 161.653C131.107 149.786 115.035 144.863 94.7623 146.929C90.0023 147.456 85.9702 148.16 82.1621 149.259C79.082 150.094 76.002 150.841 75.274 150.885L73.9859 150.929L74.0419 110.579C74.0979 72.164 74.0419 70.274 73.0899 70.274C71.2979 70.274 70.7379 70.8893 70.5699 73.131C70.4019 75.1968 70.2899 75.3286 68.5538 75.5924C67.4898 75.7682 65.9778 76.3835 65.1938 76.9989C64.3538 77.6142 63.1777 78.2296 62.5057 78.3614C61.8897 78.5372 60.7697 79.1086 60.0977 79.68L58.8657 80.691L59.0337 121.304C59.1457 143.632 59.4257 162.269 59.7057 162.708C60.4897 163.983 64.9138 165.785 66.6498 165.565C67.4898 165.433 70.4579 164.774 73.2019 164.115C88.7142 160.423 96.4424 159.324 106.523 159.368C115.987 159.412 122.819 160.555 129.483 163.236C131.667 164.071 133.683 164.774 134.019 164.774C134.355 164.774 136.707 166.444 139.283 168.466C144.323 172.51 146.563 173.389 150.651 172.862C152.443 172.642 153.731 171.895 157.54 168.994C164.484 163.675 172.772 160.73 184.084 159.456C193.044 158.445 206.596 159.895 221.717 163.456C230.845 165.653 232.917 165.697 235.605 163.851L237.565 162.489V121.172V79.8998L235.773 79.1526C234.821 78.757 233.085 77.79 231.965 76.9989C230.285 75.8121 228.941 75.4165 226.253 75.1528C226.029 75.1089 225.805 74.1858 225.693 73.043C225.525 71.0651 225.357 70.8893 223.173 69.9223C221.605 69.263 218.973 68.7356 215.725 68.384L210.685 67.9005V66.6258C210.685 65.7468 210.069 64.8677 208.78 63.8568C207.212 62.6261 206.428 62.3623 204.58 62.3623H202.284V59.7251C202.284 56.6923 202.788 56.8681 195.564 57.5274C173.052 59.7251 155.915 69.4389 149.923 83.4161L148.691 86.2731L147.683 83.8556C143.371 73.5705 133.963 65.8347 120.131 61.2635C114.587 59.4614 105.571 57.7472 99.1304 57.2637L94.7623 57V99.8547ZM205.868 64.4721C206.092 64.7358 206.428 141.918 206.26 146.489C206.204 147.676 206.148 147.72 204.132 147.412C187.612 144.951 171.54 148.248 160.9 156.159C158.94 157.654 156.195 159.983 154.851 161.39C153.451 162.796 152.163 163.851 151.995 163.719C151.491 163.28 155.635 157.17 158.212 154.621C163.084 149.83 170.98 146.138 180.948 144.028C183.972 143.369 187.668 143.061 193.772 142.929L202.284 142.709V103.415V64.1205H203.908C204.86 64.1205 205.7 64.2963 205.868 64.4721ZM215.165 109.876V149.918L213.373 149.61C212.365 149.434 211.357 149.215 211.133 149.083C210.853 148.995 210.685 131.106 210.685 109.349V69.8344H212.925H215.165V109.876ZM222.053 71.4607L223.565 72.0761V111.81V151.588H222.165C220.261 151.588 218.077 150.753 217.853 149.874C217.797 149.478 217.741 131.413 217.853 109.7L218.021 70.23L219.253 70.5377C219.925 70.6695 221.157 71.1091 222.053 71.4607ZM121.475 74.8891C123.715 75.7242 126.795 77.3065 128.363 78.4493L131.163 80.4712L131.275 89.4817L131.443 98.4922L135.363 99.4591C139.731 100.558 143.931 102.184 146.731 103.811L148.635 104.909L151.043 103.459C154.011 101.701 158.324 100.074 162.692 99.0636L165.884 98.3603V89.4377V80.5152L168.292 78.801C169.58 77.834 171.54 76.6472 172.66 76.0758C175.236 74.8451 182.012 72.8233 182.236 73.2628C182.348 73.4386 182.516 86.7566 182.628 102.844L182.796 132.117L178.708 132.864C176.412 133.303 172.828 134.226 170.644 134.93C168.516 135.633 166.556 136.204 166.332 136.204C166.052 136.204 165.884 130.666 165.884 123.897V111.59L164.372 111.854C162.188 112.25 153.003 115.634 150.483 116.997L148.355 118.139L145.947 116.821C143.147 115.326 134.971 112.206 132.731 111.766L131.163 111.502V123.853C131.163 130.666 131.051 136.204 130.883 136.204C130.715 136.204 129.147 135.721 127.355 135.149C125.619 134.578 122.091 133.655 119.571 133.084L114.923 132.117V102.492V72.8672L116.211 73.131C116.883 73.3068 119.291 74.0979 121.475 74.8891ZM70.1219 114.403C70.1219 151.236 70.1219 151.456 71.2979 152.643C72.6979 154.049 73.8739 154.093 79.082 152.687C83.8421 151.412 93.0823 150.006 99.2424 149.61C109.939 148.907 123.323 151.676 130.995 156.159C134.411 158.137 133.963 158.313 129.931 156.643C122.091 153.346 110.947 151.808 100.25 152.467C93.3063 152.907 87.0902 154.006 77.29 156.511C72.5299 157.698 69.7299 158.181 68.7778 158.005L67.3218 157.742V117.788C67.3218 86.2291 67.4898 77.79 68.0498 77.6142C70.1779 76.911 70.1219 76.0319 70.1219 114.403ZM229.053 77.834C229.557 78.2296 229.725 87.7675 229.725 118.051V157.742L228.381 158.005C227.541 158.181 224.293 157.61 219.813 156.511C200.884 151.852 190.244 151.105 177.812 153.61C175.012 154.181 170.868 155.324 168.628 156.159C166.388 156.994 164.428 157.654 164.372 157.566C164.26 157.478 165.044 156.906 166.052 156.291C169.916 154.006 175.404 151.984 180.724 150.929C190.3 148.995 204.076 149.566 215.445 152.335C221.829 153.874 223.957 154.049 225.301 153.082C226.365 152.335 226.421 151.676 226.365 115.151C226.365 94.7122 226.309 77.834 226.365 77.6142C226.365 77.1307 228.325 77.2626 229.053 77.834ZM64.5218 119.458V158.533L66.0898 159.324C68.3858 160.555 71.3539 160.291 79.6421 158.313C90.5623 155.632 95.9944 154.929 104.843 154.929C110.779 154.929 113.467 155.148 117.387 155.896C124.107 157.214 131.835 160.247 135.643 163.06L138.723 165.258L136.203 163.983C129.147 160.379 120.971 158.137 112.067 157.346C102.658 156.511 91.5143 157.786 75.61 161.522C71.0739 162.576 66.7618 163.456 65.9778 163.456C65.2498 163.456 64.0178 163.06 63.1777 162.532L61.7217 161.653V121.48C61.7217 85.4819 61.8337 81.2624 62.6177 80.647C63.0657 80.2514 63.7378 80.0317 64.0178 80.1635C64.2978 80.3393 64.5218 96.2066 64.5218 119.458ZM234.037 80.2954C234.541 80.5591 234.709 90.2289 234.821 121.26C234.877 160.379 234.877 161.873 233.869 162.445C231.853 163.631 230.341 163.499 221.605 161.478C207.884 158.313 200.044 157.17 191.084 157.17C178.876 157.17 169.692 159.368 159.724 164.642L158.324 165.389L159.724 164.159C161.572 162.532 167.62 159.412 171.596 158.049C176.636 156.291 183.636 155.06 189.964 154.797C197.356 154.489 205.812 155.588 218.413 158.401C227.765 160.511 229.221 160.555 231.349 159.016L232.525 158.137V119.062C232.525 97.5252 232.693 79.9438 232.973 79.9438C233.197 79.9438 233.645 80.1196 234.037 80.2954Z"/>
<path d="M121.475 74.8891C123.715 75.7242 126.795 77.3065 128.363 78.4493L131.163 80.4712L131.275 89.4817L131.443 98.4922L135.363 99.4591C139.731 100.558 143.931 102.184 146.731 103.811L148.635 104.909L151.043 103.459C154.011 101.701 158.324 100.074 162.692 99.0636L165.884 98.3603V89.4377V80.5152L168.292 78.801C169.58 77.834 171.54 76.6472 172.66 76.0758C175.236 74.8451 182.012 72.8233 182.236 73.2628C182.348 73.4386 182.516 86.7566 182.628 102.844L182.796 132.117L178.708 132.864C176.412 133.303 172.828 134.226 170.644 134.93C168.516 135.633 166.556 136.204 166.332 136.204C166.052 136.204 165.884 130.666 165.884 123.897V111.59L164.372 111.854C162.188 112.25 153.003 115.634 150.483 116.997L148.355 118.139L145.947 116.821C143.147 115.326 134.971 112.206 132.731 111.766L131.163 111.502V123.853C131.163 130.666 131.051 136.204 130.883 136.204C130.715 136.204 129.147 135.721 127.355 135.149C125.619 134.578 122.091 133.655 119.571 133.084L114.923 132.117V102.492V72.8672L116.211 73.131C116.883 73.3068 119.291 74.0979 121.475 74.8891Z"/>
</mask>
<path d="M94.7623 99.8547V142.709L103.611 142.929C113.915 143.193 120.075 144.292 127.187 147.193C134.467 150.182 141.075 155.588 144.043 161.038C145.723 164.115 145.163 164.335 142.587 161.653C131.107 149.786 115.035 144.863 94.7623 146.929C90.0023 147.456 85.9702 148.16 82.1621 149.259C79.082 150.094 76.002 150.841 75.274 150.885L73.9859 150.929L74.0419 110.579C74.0979 72.164 74.0419 70.274 73.0899 70.274C71.2979 70.274 70.7379 70.8893 70.5699 73.131C70.4019 75.1968 70.2899 75.3286 68.5538 75.5924C67.4898 75.7682 65.9778 76.3835 65.1938 76.9989C64.3538 77.6142 63.1777 78.2296 62.5057 78.3614C61.8897 78.5372 60.7697 79.1086 60.0977 79.68L58.8657 80.691L59.0337 121.304C59.1457 143.632 59.4257 162.269 59.7057 162.708C60.4897 163.983 64.9138 165.785 66.6498 165.565C67.4898 165.433 70.4579 164.774 73.2019 164.115C88.7142 160.423 96.4424 159.324 106.523 159.368C115.987 159.412 122.819 160.555 129.483 163.236C131.667 164.071 133.683 164.774 134.019 164.774C134.355 164.774 136.707 166.444 139.283 168.466C144.323 172.51 146.563 173.389 150.651 172.862C152.443 172.642 153.731 171.895 157.54 168.994C164.484 163.675 172.772 160.73 184.084 159.456C193.044 158.445 206.596 159.895 221.717 163.456C230.845 165.653 232.917 165.697 235.605 163.851L237.565 162.489V121.172V79.8998L235.773 79.1526C234.821 78.757 233.085 77.79 231.965 76.9989C230.285 75.8121 228.941 75.4165 226.253 75.1528C226.029 75.1089 225.805 74.1858 225.693 73.043C225.525 71.0651 225.357 70.8893 223.173 69.9223C221.605 69.263 218.973 68.7356 215.725 68.384L210.685 67.9005V66.6258C210.685 65.7468 210.069 64.8677 208.78 63.8568C207.212 62.6261 206.428 62.3623 204.58 62.3623H202.284V59.7251C202.284 56.6923 202.788 56.8681 195.564 57.5274C173.052 59.7251 155.915 69.4389 149.923 83.4161L148.691 86.2731L147.683 83.8556C143.371 73.5705 133.963 65.8347 120.131 61.2635C114.587 59.4614 105.571 57.7472 99.1304 57.2637L94.7623 57V99.8547ZM205.868 64.4721C206.092 64.7358 206.428 141.918 206.26 146.489C206.204 147.676 206.148 147.72 204.132 147.412C187.612 144.951 171.54 148.248 160.9 156.159C158.94 157.654 156.195 159.983 154.851 161.39C153.451 162.796 152.163 163.851 151.995 163.719C151.491 163.28 155.635 157.17 158.212 154.621C163.084 149.83 170.98 146.138 180.948 144.028C183.972 143.369 187.668 143.061 193.772 142.929L202.284 142.709V103.415V64.1205H203.908C204.86 64.1205 205.7 64.2963 205.868 64.4721ZM215.165 109.876V149.918L213.373 149.61C212.365 149.434 211.357 149.215 211.133 149.083C210.853 148.995 210.685 131.106 210.685 109.349V69.8344H212.925H215.165V109.876ZM222.053 71.4607L223.565 72.0761V111.81V151.588H222.165C220.261 151.588 218.077 150.753 217.853 149.874C217.797 149.478 217.741 131.413 217.853 109.7L218.021 70.23L219.253 70.5377C219.925 70.6695 221.157 71.1091 222.053 71.4607ZM121.475 74.8891C123.715 75.7242 126.795 77.3065 128.363 78.4493L131.163 80.4712L131.275 89.4817L131.443 98.4922L135.363 99.4591C139.731 100.558 143.931 102.184 146.731 103.811L148.635 104.909L151.043 103.459C154.011 101.701 158.324 100.074 162.692 99.0636L165.884 98.3603V89.4377V80.5152L168.292 78.801C169.58 77.834 171.54 76.6472 172.66 76.0758C175.236 74.8451 182.012 72.8233 182.236 73.2628C182.348 73.4386 182.516 86.7566 182.628 102.844L182.796 132.117L178.708 132.864C176.412 133.303 172.828 134.226 170.644 134.93C168.516 135.633 166.556 136.204 166.332 136.204C166.052 136.204 165.884 130.666 165.884 123.897V111.59L164.372 111.854C162.188 112.25 153.003 115.634 150.483 116.997L148.355 118.139L145.947 116.821C143.147 115.326 134.971 112.206 132.731 111.766L131.163 111.502V123.853C131.163 130.666 131.051 136.204 130.883 136.204C130.715 136.204 129.147 135.721 127.355 135.149C125.619 134.578 122.091 133.655 119.571 133.084L114.923 132.117V102.492V72.8672L116.211 73.131C116.883 73.3068 119.291 74.0979 121.475 74.8891ZM70.1219 114.403C70.1219 151.236 70.1219 151.456 71.2979 152.643C72.6979 154.049 73.8739 154.093 79.082 152.687C83.8421 151.412 93.0823 150.006 99.2424 149.61C109.939 148.907 123.323 151.676 130.995 156.159C134.411 158.137 133.963 158.313 129.931 156.643C122.091 153.346 110.947 151.808 100.25 152.467C93.3063 152.907 87.0902 154.006 77.29 156.511C72.5299 157.698 69.7299 158.181 68.7778 158.005L67.3218 157.742V117.788C67.3218 86.2291 67.4898 77.79 68.0498 77.6142C70.1779 76.911 70.1219 76.0319 70.1219 114.403ZM229.053 77.834C229.557 78.2296 229.725 87.7675 229.725 118.051V157.742L228.381 158.005C227.541 158.181 224.293 157.61 219.813 156.511C200.884 151.852 190.244 151.105 177.812 153.61C175.012 154.181 170.868 155.324 168.628 156.159C166.388 156.994 164.428 157.654 164.372 157.566C164.26 157.478 165.044 156.906 166.052 156.291C169.916 154.006 175.404 151.984 180.724 150.929C190.3 148.995 204.076 149.566 215.445 152.335C221.829 153.874 223.957 154.049 225.301 153.082C226.365 152.335 226.421 151.676 226.365 115.151C226.365 94.7122 226.309 77.834 226.365 77.6142C226.365 77.1307 228.325 77.2626 229.053 77.834ZM64.5218 119.458V158.533L66.0898 159.324C68.3858 160.555 71.3539 160.291 79.6421 158.313C90.5623 155.632 95.9944 154.929 104.843 154.929C110.779 154.929 113.467 155.148 117.387 155.896C124.107 157.214 131.835 160.247 135.643 163.06L138.723 165.258L136.203 163.983C129.147 160.379 120.971 158.137 112.067 157.346C102.658 156.511 91.5143 157.786 75.61 161.522C71.0739 162.576 66.7618 163.456 65.9778 163.456C65.2498 163.456 64.0178 163.06 63.1777 162.532L61.7217 161.653V121.48C61.7217 85.4819 61.8337 81.2624 62.6177 80.647C63.0657 80.2514 63.7378 80.0317 64.0178 80.1635C64.2978 80.3393 64.5218 96.2066 64.5218 119.458ZM234.037 80.2954C234.541 80.5591 234.709 90.2289 234.821 121.26C234.877 160.379 234.877 161.873 233.869 162.445C231.853 163.631 230.341 163.499 221.605 161.478C207.884 158.313 200.044 157.17 191.084 157.17C178.876 157.17 169.692 159.368 159.724 164.642L158.324 165.389L159.724 164.159C161.572 162.532 167.62 159.412 171.596 158.049C176.636 156.291 183.636 155.06 189.964 154.797C197.356 154.489 205.812 155.588 218.413 158.401C227.765 160.511 229.221 160.555 231.349 159.016L232.525 158.137V119.062C232.525 97.5252 232.693 79.9438 232.973 79.9438C233.197 79.9438 233.645 80.1196 234.037 80.2954Z" fill="black"/>
<path d="M94.7623 99.8547V142.709L103.611 142.929C113.915 143.193 120.075 144.292 127.187 147.193C134.467 150.182 141.075 155.588 144.043 161.038C145.723 164.115 145.163 164.335 142.587 161.653C131.107 149.786 115.035 144.863 94.7623 146.929C90.0023 147.456 85.9702 148.16 82.1621 149.259C79.082 150.094 76.002 150.841 75.274 150.885L73.9859 150.929L74.0419 110.579C74.0979 72.164 74.0419 70.274 73.0899 70.274C71.2979 70.274 70.7379 70.8893 70.5699 73.131C70.4019 75.1968 70.2899 75.3286 68.5538 75.5924C67.4898 75.7682 65.9778 76.3835 65.1938 76.9989C64.3538 77.6142 63.1777 78.2296 62.5057 78.3614C61.8897 78.5372 60.7697 79.1086 60.0977 79.68L58.8657 80.691L59.0337 121.304C59.1457 143.632 59.4257 162.269 59.7057 162.708C60.4897 163.983 64.9138 165.785 66.6498 165.565C67.4898 165.433 70.4579 164.774 73.2019 164.115C88.7142 160.423 96.4424 159.324 106.523 159.368C115.987 159.412 122.819 160.555 129.483 163.236C131.667 164.071 133.683 164.774 134.019 164.774C134.355 164.774 136.707 166.444 139.283 168.466C144.323 172.51 146.563 173.389 150.651 172.862C152.443 172.642 153.731 171.895 157.54 168.994C164.484 163.675 172.772 160.73 184.084 159.456C193.044 158.445 206.596 159.895 221.717 163.456C230.845 165.653 232.917 165.697 235.605 163.851L237.565 162.489V121.172V79.8998L235.773 79.1526C234.821 78.757 233.085 77.79 231.965 76.9989C230.285 75.8121 228.941 75.4165 226.253 75.1528C226.029 75.1089 225.805 74.1858 225.693 73.043C225.525 71.0651 225.357 70.8893 223.173 69.9223C221.605 69.263 218.973 68.7356 215.725 68.384L210.685 67.9005V66.6258C210.685 65.7468 210.069 64.8677 208.78 63.8568C207.212 62.6261 206.428 62.3623 204.58 62.3623H202.284V59.7251C202.284 56.6923 202.788 56.8681 195.564 57.5274C173.052 59.7251 155.915 69.4389 149.923 83.4161L148.691 86.2731L147.683 83.8556C143.371 73.5705 133.963 65.8347 120.131 61.2635C114.587 59.4614 105.571 57.7472 99.1304 57.2637L94.7623 57V99.8547ZM205.868 64.4721C206.092 64.7358 206.428 141.918 206.26 146.489C206.204 147.676 206.148 147.72 204.132 147.412C187.612 144.951 171.54 148.248 160.9 156.159C158.94 157.654 156.195 159.983 154.851 161.39C153.451 162.796 152.163 163.851 151.995 163.719C151.491 163.28 155.635 157.17 158.212 154.621C163.084 149.83 170.98 146.138 180.948 144.028C183.972 143.369 187.668 143.061 193.772 142.929L202.284 142.709V103.415V64.1205H203.908C204.86 64.1205 205.7 64.2963 205.868 64.4721ZM215.165 109.876V149.918L213.373 149.61C212.365 149.434 211.357 149.215 211.133 149.083C210.853 148.995 210.685 131.106 210.685 109.349V69.8344H212.925H215.165V109.876ZM222.053 71.4607L223.565 72.0761V111.81V151.588H222.165C220.261 151.588 218.077 150.753 217.853 149.874C217.797 149.478 217.741 131.413 217.853 109.7L218.021 70.23L219.253 70.5377C219.925 70.6695 221.157 71.1091 222.053 71.4607ZM121.475 74.8891C123.715 75.7242 126.795 77.3065 128.363 78.4493L131.163 80.4712L131.275 89.4817L131.443 98.4922L135.363 99.4591C139.731 100.558 143.931 102.184 146.731 103.811L148.635 104.909L151.043 103.459C154.011 101.701 158.324 100.074 162.692 99.0636L165.884 98.3603V89.4377V80.5152L168.292 78.801C169.58 77.834 171.54 76.6472 172.66 76.0758C175.236 74.8451 182.012 72.8233 182.236 73.2628C182.348 73.4386 182.516 86.7566 182.628 102.844L182.796 132.117L178.708 132.864C176.412 133.303 172.828 134.226 170.644 134.93C168.516 135.633 166.556 136.204 166.332 136.204C166.052 136.204 165.884 130.666 165.884 123.897V111.59L164.372 111.854C162.188 112.25 153.003 115.634 150.483 116.997L148.355 118.139L145.947 116.821C143.147 115.326 134.971 112.206 132.731 111.766L131.163 111.502V123.853C131.163 130.666 131.051 136.204 130.883 136.204C130.715 136.204 129.147 135.721 127.355 135.149C125.619 134.578 122.091 133.655 119.571 133.084L114.923 132.117V102.492V72.8672L116.211 73.131C116.883 73.3068 119.291 74.0979 121.475 74.8891ZM70.1219 114.403C70.1219 151.236 70.1219 151.456 71.2979 152.643C72.6979 154.049 73.8739 154.093 79.082 152.687C83.8421 151.412 93.0823 150.006 99.2424 149.61C109.939 148.907 123.323 151.676 130.995 156.159C134.411 158.137 133.963 158.313 129.931 156.643C122.091 153.346 110.947 151.808 100.25 152.467C93.3063 152.907 87.0902 154.006 77.29 156.511C72.5299 157.698 69.7299 158.181 68.7778 158.005L67.3218 157.742V117.788C67.3218 86.2291 67.4898 77.79 68.0498 77.6142C70.1779 76.911 70.1219 76.0319 70.1219 114.403ZM229.053 77.834C229.557 78.2296 229.725 87.7675 229.725 118.051V157.742L228.381 158.005C227.541 158.181 224.293 157.61 219.813 156.511C200.884 151.852 190.244 151.105 177.812 153.61C175.012 154.181 170.868 155.324 168.628 156.159C166.388 156.994 164.428 157.654 164.372 157.566C164.26 157.478 165.044 156.906 166.052 156.291C169.916 154.006 175.404 151.984 180.724 150.929C190.3 148.995 204.076 149.566 215.445 152.335C221.829 153.874 223.957 154.049 225.301 153.082C226.365 152.335 226.421 151.676 226.365 115.151C226.365 94.7122 226.309 77.834 226.365 77.6142C226.365 77.1307 228.325 77.2626 229.053 77.834ZM64.5218 119.458V158.533L66.0898 159.324C68.3858 160.555 71.3539 160.291 79.6421 158.313C90.5623 155.632 95.9944 154.929 104.843 154.929C110.779 154.929 113.467 155.148 117.387 155.896C124.107 157.214 131.835 160.247 135.643 163.06L138.723 165.258L136.203 163.983C129.147 160.379 120.971 158.137 112.067 157.346C102.658 156.511 91.5143 157.786 75.61 161.522C71.0739 162.576 66.7618 163.456 65.9778 163.456C65.2498 163.456 64.0178 163.06 63.1777 162.532L61.7217 161.653V121.48C61.7217 85.4819 61.8337 81.2624 62.6177 80.647C63.0657 80.2514 63.7378 80.0317 64.0178 80.1635C64.2978 80.3393 64.5218 96.2066 64.5218 119.458ZM234.037 80.2954C234.541 80.5591 234.709 90.2289 234.821 121.26C234.877 160.379 234.877 161.873 233.869 162.445C231.853 163.631 230.341 163.499 221.605 161.478C207.884 158.313 200.044 157.17 191.084 157.17C178.876 157.17 169.692 159.368 159.724 164.642L158.324 165.389L159.724 164.159C161.572 162.532 167.62 159.412 171.596 158.049C176.636 156.291 183.636 155.06 189.964 154.797C197.356 154.489 205.812 155.588 218.413 158.401C227.765 160.511 229.221 160.555 231.349 159.016L232.525 158.137V119.062C232.525 97.5252 232.693 79.9438 232.973 79.9438C233.197 79.9438 233.645 80.1196 234.037 80.2954Z" stroke="black" stroke-width="6" mask="url(#path-1-inside-1_212_4)"/>
<path d="M121.475 74.8891C123.715 75.7242 126.795 77.3065 128.363 78.4493L131.163 80.4712L131.275 89.4817L131.443 98.4922L135.363 99.4591C139.731 100.558 143.931 102.184 146.731 103.811L148.635 104.909L151.043 103.459C154.011 101.701 158.324 100.074 162.692 99.0636L165.884 98.3603V89.4377V80.5152L168.292 78.801C169.58 77.834 171.54 76.6472 172.66 76.0758C175.236 74.8451 182.012 72.8233 182.236 73.2628C182.348 73.4386 182.516 86.7566 182.628 102.844L182.796 132.117L178.708 132.864C176.412 133.303 172.828 134.226 170.644 134.93C168.516 135.633 166.556 136.204 166.332 136.204C166.052 136.204 165.884 130.666 165.884 123.897V111.59L164.372 111.854C162.188 112.25 153.003 115.634 150.483 116.997L148.355 118.139L145.947 116.821C143.147 115.326 134.971 112.206 132.731 111.766L131.163 111.502V123.853C131.163 130.666 131.051 136.204 130.883 136.204C130.715 136.204 129.147 135.721 127.355 135.149C125.619 134.578 122.091 133.655 119.571 133.084L114.923 132.117V102.492V72.8672L116.211 73.131C116.883 73.3068 119.291 74.0979 121.475 74.8891Z" stroke="black" stroke-width="6" mask="url(#path-1-inside-1_212_4)"/>
<path d="M81.2605 71V70.699H81.9955C82.1681 70.699 82.3151 70.6547 82.4365 70.566C82.5578 70.4727 82.6185 70.3117 82.6185 70.083V68.025C82.6185 67.857 82.5578 67.71 82.4365 67.584C82.3151 67.458 82.1681 67.395 81.9955 67.395H81.2605V67.094H86.8815C87.1708 67.094 87.4415 67.1033 87.6935 67.122C87.9455 67.136 88.1671 67.1733 88.3585 67.234C88.5498 67.29 88.6991 67.381 88.8065 67.507C88.9138 67.6283 88.9675 67.794 88.9675 68.004C88.9675 68.1907 88.9208 68.347 88.8275 68.473C88.7341 68.5943 88.6268 68.69 88.5055 68.76C88.3841 68.8253 88.2838 68.872 88.2045 68.9V68.928C88.2838 68.942 88.3841 68.97 88.5055 69.012C88.6315 69.054 88.7575 69.1147 88.8835 69.194C89.0095 69.2687 89.1145 69.3667 89.1985 69.488C89.2825 69.6093 89.3245 69.7587 89.3245 69.936C89.3245 70.1507 89.2615 70.328 89.1355 70.468C89.0141 70.6033 88.8555 70.7107 88.6595 70.79C88.4681 70.8693 88.2651 70.9253 88.0505 70.958C87.8405 70.986 87.6491 71 87.4765 71H81.2605ZM83.0595 70.699H83.4095V67.395H83.0595V70.699ZM84.9845 68.809H85.8945C86.0111 68.809 86.1278 68.7857 86.2445 68.739C86.3611 68.6877 86.4591 68.6107 86.5385 68.508C86.6178 68.4007 86.6575 68.2653 86.6575 68.102C86.6575 67.8733 86.5711 67.6983 86.3985 67.577C86.2258 67.4557 85.9808 67.395 85.6635 67.395C85.4535 67.395 85.2878 67.4463 85.1665 67.549C85.0451 67.6517 84.9845 67.7893 84.9845 67.962V68.809ZM86.9795 68.83C87.1428 68.7647 87.2805 68.6667 87.3925 68.536C87.5091 68.4053 87.5675 68.2723 87.5675 68.137C87.5675 68.0017 87.5091 67.8687 87.3925 67.738C87.2805 67.6073 87.1428 67.5117 86.9795 67.451L86.9515 67.472C87.0168 67.5653 87.0705 67.6703 87.1125 67.787C87.1591 67.899 87.1825 68.0157 87.1825 68.137C87.1825 68.2537 87.1591 68.3703 87.1125 68.487C87.0705 68.6037 87.0168 68.7087 86.9515 68.802L86.9795 68.83ZM87.1335 70.72C87.3341 70.6407 87.4951 70.5263 87.6165 70.377C87.7378 70.223 87.7985 70.0597 87.7985 69.887C87.7985 69.7143 87.7378 69.551 87.6165 69.397C87.4951 69.243 87.3341 69.1287 87.1335 69.054L87.1125 69.082C87.2058 69.1847 87.2805 69.306 87.3365 69.446C87.3925 69.586 87.4205 69.733 87.4205 69.887C87.4205 70.041 87.3925 70.188 87.3365 70.328C87.2805 70.468 87.2058 70.5893 87.1125 70.692L87.1335 70.72ZM85.4605 70.699H86.0065C86.1371 70.699 86.2701 70.6757 86.4055 70.629C86.5408 70.5823 86.6551 70.5007 86.7485 70.384C86.8418 70.2627 86.8885 70.097 86.8885 69.887C86.8885 69.5977 86.7951 69.39 86.6085 69.264C86.4265 69.138 86.2048 69.075 85.9435 69.075H84.9845V70.111C84.9845 70.2837 85.0195 70.426 85.0895 70.538C85.1595 70.6453 85.2831 70.699 85.4605 70.699ZM82.573 79V78.699H83.315C83.4876 78.699 83.6346 78.6547 83.756 78.566C83.882 78.4727 83.945 78.3117 83.945 78.083V76.025C83.945 75.857 83.882 75.71 83.756 75.584C83.6346 75.458 83.4876 75.395 83.315 75.395H82.573V75.094H87.676V75.395H86.934C86.7613 75.395 86.612 75.458 86.486 75.584C86.3646 75.71 86.304 75.857 86.304 76.025V78.083C86.304 78.3117 86.3646 78.4727 86.486 78.566C86.612 78.6547 86.7613 78.699 86.934 78.699H87.676V79H82.573ZM84.379 78.699H84.736V75.395H84.379V78.699ZM81.2605 87V86.699H81.9955C82.1681 86.699 82.3151 86.6547 82.4365 86.566C82.5578 86.4727 82.6185 86.3117 82.6185 86.083V84.025C82.6185 83.857 82.5578 83.71 82.4365 83.584C82.3151 83.458 82.1681 83.395 81.9955 83.395H81.2605V83.094H86.8815C87.1708 83.094 87.4415 83.1033 87.6935 83.122C87.9455 83.136 88.1671 83.1733 88.3585 83.234C88.5498 83.29 88.6991 83.381 88.8065 83.507C88.9138 83.6283 88.9675 83.794 88.9675 84.004C88.9675 84.1907 88.9208 84.347 88.8275 84.473C88.7341 84.5943 88.6268 84.69 88.5055 84.76C88.3841 84.8253 88.2838 84.872 88.2045 84.9V84.928C88.2838 84.942 88.3841 84.97 88.5055 85.012C88.6315 85.054 88.7575 85.1147 88.8835 85.194C89.0095 85.2687 89.1145 85.3667 89.1985 85.488C89.2825 85.6093 89.3245 85.7587 89.3245 85.936C89.3245 86.1507 89.2615 86.328 89.1355 86.468C89.0141 86.6033 88.8555 86.7107 88.6595 86.79C88.4681 86.8693 88.2651 86.9253 88.0505 86.958C87.8405 86.986 87.6491 87 87.4765 87H81.2605ZM83.0595 86.699H83.4095V83.395H83.0595V86.699ZM84.9845 84.809H85.8945C86.0111 84.809 86.1278 84.7857 86.2445 84.739C86.3611 84.6877 86.4591 84.6107 86.5385 84.508C86.6178 84.4007 86.6575 84.2653 86.6575 84.102C86.6575 83.8733 86.5711 83.6983 86.3985 83.577C86.2258 83.4557 85.9808 83.395 85.6635 83.395C85.4535 83.395 85.2878 83.4463 85.1665 83.549C85.0451 83.6517 84.9845 83.7893 84.9845 83.962V84.809ZM86.9795 84.83C87.1428 84.7647 87.2805 84.6667 87.3925 84.536C87.5091 84.4053 87.5675 84.2723 87.5675 84.137C87.5675 84.0017 87.5091 83.8687 87.3925 83.738C87.2805 83.6073 87.1428 83.5117 86.9795 83.451L86.9515 83.472C87.0168 83.5653 87.0705 83.6703 87.1125 83.787C87.1591 83.899 87.1825 84.0157 87.1825 84.137C87.1825 84.2537 87.1591 84.3703 87.1125 84.487C87.0705 84.6037 87.0168 84.7087 86.9515 84.802L86.9795 84.83ZM87.1335 86.72C87.3341 86.6407 87.4951 86.5263 87.6165 86.377C87.7378 86.223 87.7985 86.0597 87.7985 85.887C87.7985 85.7143 87.7378 85.551 87.6165 85.397C87.4951 85.243 87.3341 85.1287 87.1335 85.054L87.1125 85.082C87.2058 85.1847 87.2805 85.306 87.3365 85.446C87.3925 85.586 87.4205 85.733 87.4205 85.887C87.4205 86.041 87.3925 86.188 87.3365 86.328C87.2805 86.468 87.2058 86.5893 87.1125 86.692L87.1335 86.72ZM85.4605 86.699H86.0065C86.1371 86.699 86.2701 86.6757 86.4055 86.629C86.5408 86.5823 86.6551 86.5007 86.7485 86.384C86.8418 86.2627 86.8885 86.097 86.8885 85.887C86.8885 85.5977 86.7951 85.39 86.6085 85.264C86.4265 85.138 86.2048 85.075 85.9435 85.075H84.9845V86.111C84.9845 86.2837 85.0195 86.426 85.0895 86.538C85.1595 86.6453 85.2831 86.699 85.4605 86.699ZM81.8757 95V94.699H82.6107C82.7834 94.699 82.9304 94.6547 83.0517 94.566C83.173 94.4727 83.2337 94.3117 83.2337 94.083V92.025C83.2337 91.857 83.173 91.71 83.0517 91.584C82.9304 91.458 82.7834 91.395 82.6107 91.395H81.8757V91.094H87.2447V91.395H86.2297C86.057 91.395 85.9077 91.458 85.7817 91.584C85.6604 91.71 85.5997 91.857 85.5997 92.025V94.083C85.5997 94.251 85.6417 94.398 85.7257 94.524C85.8144 94.6453 85.9824 94.706 86.2297 94.706C86.4257 94.706 86.6544 94.6687 86.9157 94.594C87.177 94.5193 87.4524 94.377 87.7417 94.167C88.0357 93.957 88.325 93.6513 88.6097 93.25H88.8267V95H81.8757ZM83.6747 94.699H84.0247V91.395H83.6747V94.699ZM82.573 103V102.699H83.315C83.4876 102.699 83.6346 102.655 83.756 102.566C83.882 102.473 83.945 102.312 83.945 102.083V100.025C83.945 99.857 83.882 99.71 83.756 99.584C83.6346 99.458 83.4876 99.395 83.315 99.395H82.573V99.094H87.676V99.395H86.934C86.7613 99.395 86.612 99.458 86.486 99.584C86.3646 99.71 86.304 99.857 86.304 100.025V102.083C86.304 102.312 86.3646 102.473 86.486 102.566C86.612 102.655 86.7613 102.699 86.934 102.699H87.676V103H82.573ZM84.379 102.699H84.736V99.395H84.379V102.699ZM85.1465 111.154C84.6145 111.154 84.1152 111.1 83.6485 110.993C83.1865 110.881 82.7782 110.729 82.4235 110.538C82.0735 110.342 81.7982 110.118 81.5975 109.866C81.3969 109.609 81.2965 109.334 81.2965 109.04C81.2965 108.751 81.3852 108.48 81.5625 108.228C81.7445 107.971 82.0035 107.747 82.3395 107.556C82.6755 107.365 83.0792 107.215 83.5505 107.108C84.0265 106.996 84.5585 106.94 85.1465 106.94C85.7345 106.94 86.2642 106.996 86.7355 107.108C87.2115 107.215 87.6152 107.365 87.9465 107.556C88.2825 107.747 88.5392 107.971 88.7165 108.228C88.8985 108.48 88.9895 108.751 88.9895 109.04C88.9895 109.334 88.8892 109.609 88.6885 109.866C88.4925 110.118 88.2172 110.342 87.8625 110.538C87.5125 110.729 87.1042 110.881 86.6375 110.993C86.1755 111.1 85.6785 111.154 85.1465 111.154ZM83.8305 110.846L83.8445 110.797C83.4992 110.704 83.1912 110.573 82.9205 110.405C82.6499 110.237 82.4375 110.039 82.2835 109.81C82.1295 109.577 82.0525 109.322 82.0525 109.047C82.0525 108.762 82.1295 108.506 82.2835 108.277C82.4375 108.048 82.6499 107.85 82.9205 107.682C83.1912 107.514 83.5015 107.383 83.8515 107.29L83.8375 107.248C83.3989 107.337 83.0092 107.467 82.6685 107.64C82.3279 107.813 82.0595 108.018 81.8635 108.256C81.6722 108.489 81.5765 108.751 81.5765 109.04C81.5765 109.329 81.6722 109.593 81.8635 109.831C82.0595 110.069 82.3255 110.274 82.6615 110.447C83.0022 110.62 83.3919 110.753 83.8305 110.846ZM85.1465 110.853C85.5432 110.853 85.8512 110.701 86.0705 110.398C86.2899 110.095 86.3995 109.647 86.3995 109.054C86.3995 108.657 86.3622 108.326 86.2875 108.06C86.2175 107.789 86.0915 107.586 85.9095 107.451C85.7322 107.316 85.4779 107.248 85.1465 107.248C84.8199 107.248 84.5655 107.316 84.3835 107.451C84.2015 107.586 84.0732 107.789 83.9985 108.06C83.9285 108.326 83.8935 108.657 83.8935 109.054C83.8935 109.647 84.0032 110.095 84.2225 110.398C84.4419 110.701 84.7499 110.853 85.1465 110.853ZM86.5325 110.755C86.7752 110.55 86.9665 110.3 87.1065 110.006C87.2512 109.707 87.3235 109.385 87.3235 109.04C87.3235 108.699 87.2535 108.382 87.1135 108.088C86.9735 107.794 86.7822 107.544 86.5395 107.339L86.5115 107.36C86.6142 107.617 86.6935 107.887 86.7495 108.172C86.8102 108.452 86.8405 108.744 86.8405 109.047C86.8405 109.346 86.8102 109.637 86.7495 109.922C86.6935 110.202 86.6119 110.473 86.5045 110.734L86.5325 110.755ZM82.597 119V118.699H83.339C83.5116 118.699 83.6586 118.652 83.78 118.559C83.9013 118.466 83.962 118.305 83.962 118.076V115.668C83.962 115.589 83.9456 115.523 83.913 115.472C83.885 115.421 83.836 115.395 83.766 115.395C83.6913 115.395 83.5956 115.444 83.479 115.542C83.367 115.635 83.248 115.754 83.122 115.899C82.996 116.039 82.877 116.181 82.765 116.326C82.653 116.471 82.562 116.592 82.492 116.69C82.422 116.783 82.387 116.83 82.387 116.83H82.135L82.233 115.094H88.057L88.155 116.83H87.903C87.903 116.83 87.868 116.783 87.798 116.69C87.728 116.592 87.637 116.471 87.525 116.326C87.413 116.181 87.294 116.039 87.168 115.899C87.042 115.754 86.9206 115.635 86.804 115.542C86.692 115.444 86.601 115.395 86.531 115.395C86.4563 115.395 86.4026 115.421 86.37 115.472C86.3373 115.523 86.321 115.589 86.321 115.668V118.076C86.321 118.305 86.3816 118.466 86.503 118.559C86.629 118.652 86.7783 118.699 86.951 118.699H87.693V119H82.597ZM84.403 118.699H84.746V115.395H84.403V118.699ZM81.5134 127V126.699H82.2484C82.4257 126.699 82.5727 126.655 82.6894 126.566C82.8107 126.473 82.8714 126.312 82.8714 126.083V124.018C82.8714 123.85 82.8107 123.705 82.6894 123.584C82.5727 123.458 82.4257 123.395 82.2484 123.395H81.5134V123.094H88.7304V124.494H88.5274C88.4014 124.321 88.2241 124.151 87.9954 123.983C87.7714 123.815 87.4844 123.675 87.1344 123.563C86.7891 123.451 86.3714 123.395 85.8814 123.395C85.6807 123.395 85.5221 123.449 85.4054 123.556C85.2934 123.659 85.2374 123.792 85.2374 123.955V124.235C85.2374 124.356 85.2701 124.473 85.3354 124.585C85.4007 124.692 85.5337 124.746 85.7344 124.746C85.9071 124.746 86.0914 124.713 86.2874 124.648C86.4834 124.578 86.6607 124.485 86.8194 124.368C86.9827 124.251 87.0971 124.125 87.1624 123.99H87.4214V125.838H87.1624C87.0971 125.689 86.9827 125.563 86.8194 125.46C86.6607 125.353 86.4834 125.273 86.2874 125.222C86.0914 125.166 85.9071 125.138 85.7344 125.138C85.5337 125.138 85.4007 125.192 85.3354 125.299C85.2701 125.406 85.2374 125.523 85.2374 125.649V126.118C85.2374 126.291 85.2724 126.431 85.3424 126.538C85.4124 126.645 85.5361 126.699 85.7134 126.699H86.2524C86.5091 126.699 86.7751 126.673 87.0504 126.622C87.3257 126.566 87.5917 126.466 87.8484 126.321C88.1051 126.176 88.3314 125.969 88.5274 125.698H88.7304V127H81.5134ZM83.3054 126.699H83.6624V123.395H83.3054V126.699ZM85.8402 135.154C85.3269 135.154 84.8392 135.112 84.3772 135.028C83.9152 134.949 83.5046 134.825 83.1452 134.657C82.7906 134.484 82.5106 134.265 82.3052 133.999C82.0999 133.728 81.9972 133.406 81.9972 133.033C81.9972 132.73 82.0672 132.464 82.2072 132.235C82.3519 132.006 82.5479 131.81 82.7952 131.647C83.0426 131.479 83.3226 131.344 83.6352 131.241C83.9479 131.138 84.2746 131.064 84.6152 131.017C84.9606 130.966 85.2989 130.94 85.6302 130.94C86.0269 130.94 86.4049 130.984 86.7642 131.073C87.1236 131.162 87.4526 131.26 87.7512 131.367V131.087H88.0802V132.543H87.7652C87.6952 132.445 87.5856 132.324 87.4362 132.179C87.2916 132.03 87.1212 131.885 86.9252 131.745C86.7292 131.6 86.5169 131.481 86.2882 131.388C86.0642 131.29 85.8356 131.241 85.6022 131.241C85.2616 131.241 85.0282 131.323 84.9022 131.486C84.7809 131.649 84.7202 131.852 84.7202 132.095V133.74C84.7202 134.137 84.8042 134.424 84.9722 134.601C85.1402 134.778 85.4366 134.867 85.8612 134.867C86.2252 134.867 86.5402 134.832 86.8062 134.762C87.0769 134.687 87.3056 134.601 87.4922 134.503C87.6789 134.405 87.8282 134.321 87.9402 134.251C88.0569 134.176 88.1409 134.139 88.1922 134.139C88.2202 134.139 88.2529 134.148 88.2902 134.167C88.3322 134.186 88.3532 134.223 88.3532 134.279C88.3532 134.34 88.2972 134.412 88.1852 134.496C88.0779 134.58 87.9239 134.673 87.7232 134.776C87.5226 134.874 87.2729 134.96 86.9742 135.035C86.6756 135.114 86.2976 135.154 85.8402 135.154ZM83.8522 134.706L83.8662 134.678C83.5629 134.505 83.3039 134.281 83.0892 134.006C82.8746 133.731 82.7672 133.411 82.7672 133.047C82.7672 132.678 82.8746 132.356 83.0892 132.081C83.3039 131.806 83.5629 131.582 83.8662 131.409L83.8522 131.381C83.5909 131.488 83.3482 131.626 83.1242 131.794C82.9002 131.957 82.7206 132.146 82.5852 132.361C82.4499 132.571 82.3822 132.8 82.3822 133.047C82.3822 133.29 82.4499 133.518 82.5852 133.733C82.7206 133.943 82.9002 134.132 83.1242 134.3C83.3482 134.463 83.5909 134.599 83.8522 134.706ZM80.8873 143V142.699C81.0787 142.699 81.242 142.676 81.3773 142.629C81.5173 142.578 81.6317 142.522 81.7203 142.461C81.8137 142.4 81.8813 142.347 81.9233 142.3C81.97 142.249 81.9933 142.223 81.9933 142.223L83.7713 139.948L83.5753 139.703C83.524 139.638 83.4727 139.584 83.4213 139.542C83.37 139.495 83.3023 139.46 83.2183 139.437C83.1343 139.409 83.013 139.395 82.8543 139.395H82.3643V139.094H85.8013L88.6993 142.699H89.3923V143H84.8843V142.699H85.3463C85.4397 142.699 85.5167 142.68 85.5773 142.643C85.6427 142.601 85.6753 142.543 85.6753 142.468C85.6753 142.365 85.6217 142.246 85.5143 142.111L85.2973 141.838H82.6793C82.572 142.02 82.5183 142.179 82.5183 142.314C82.5183 142.435 82.558 142.531 82.6373 142.601C82.7213 142.666 82.824 142.699 82.9453 142.699H83.5193V143H80.8873ZM86.6133 142.699H87.0333L84.3733 139.395H83.9463L86.6133 142.699ZM82.9033 141.551H85.0663L83.9673 140.179L82.9033 141.551Z" fill="black"/>
<path d="M309.436 104.16V95.52L313.756 99.84V104.16H309.436ZM309.436 112.8V104.16L313.756 108.48V112.8H309.436ZM248.956 130.08V86.88H270.556L274.876 91.2V108.48H287.836V86.88H309.436L313.756 91.2V95.52H309.436V91.2H292.156V108.48L287.836 112.8H270.556V91.2H253.276V125.76L248.956 130.08ZM309.436 121.44V112.8L313.756 117.12V121.44H309.436ZM309.436 130.08V121.44L313.756 125.76V130.08H309.436ZM309.436 138.72V130.08L313.756 134.4V138.72H309.436ZM309.436 147.36V138.72L313.756 143.04V147.36H309.436ZM248.956 156V130.08H253.276V151.68H270.556V130.08H287.836L292.156 134.4V151.68H305.116L300.796 156H287.836V134.4H274.876V151.68L270.556 156H248.956ZM309.436 151.68V147.36L313.756 151.68H309.436ZM305.116 156V151.68H309.436V156H305.116Z" fill="url(#paint0_linear_212_4)"/>
<path d="M323.807 130V93.7695H342.646V99.4629H329.604V109.09H337.781V114.887H329.604V124.255H342.646V130H323.807ZM346.787 130V93.7695H352.584V124.307H366.248V130H346.787ZM369.25 130V93.7695H388.09V99.4629H375.047V109.09H383.225V114.887H375.047V124.255H388.09V130H369.25ZM392.282 130V102.982H392.696L398.079 111.626V130H392.282ZM392.282 97.4961V93.7695H397.096L415.314 123.013V130H412.52L392.282 97.4961ZM409.518 108.883V93.7695H415.314V117.526H414.9L409.518 108.883ZM419.093 130L425.925 99.6182H426.701L429.082 110.591L424.786 130H419.093ZM428.668 124.824L429.858 119.183H433.74L428.15 93.7695H433.844L442.177 130H436.432L435.293 124.824H428.668Z" fill="black"/>
<g filter="url(#filter0_d_212_4)">
<path d="M320.965 151.41L324.317 135.458L324.727 135.454L326.452 143.092L324.738 151.369L320.965 151.41ZM326.763 149.022L327.542 145.24L328.526 145.229L325.484 132.219L329.285 132.177L334.007 151.267L330.179 151.309L329.607 148.991L326.763 149.022ZM335.675 151.249L335.541 139.109L335.788 139.106L339.492 147.734L339.53 151.207L335.675 151.249ZM335.492 134.625L335.464 132.109L338.472 132.077L343.834 144.679L346.66 138.112L346.933 138.109L347.031 146.995L345.245 151.144L342.593 151.173L335.492 134.625ZM348.553 151.108L348.343 131.968L352.198 131.926L352.409 151.066L348.553 151.108ZM354.432 151.043L357.784 135.092L358.194 135.087L359.919 142.725L358.205 151.002L354.432 151.043ZM360.23 148.656L361.009 144.873L361.993 144.863L358.951 131.852L362.752 131.811L367.474 150.901L363.646 150.943L363.074 148.624L360.23 148.656ZM368.814 150.886L368.771 147.031L374.387 135.511L368.645 135.574L368.603 131.746L378.61 131.637L378.651 135.383L373.036 146.902L378.778 146.839L378.821 150.776L368.814 150.886ZM380.462 150.758L380.419 146.903L386.035 135.384L380.293 135.447L380.251 131.619L390.258 131.509L390.299 135.255L384.684 146.774L390.425 146.711L390.469 150.649L380.462 150.758ZM392.269 145.297L392.17 136.301C392.16 135.335 392.559 134.346 393.368 133.335C394.447 132.01 395.825 131.33 397.502 131.293L397.545 135.148C396.797 135.175 396.31 135.599 396.082 136.422C396.047 136.55 396.03 136.642 396.03 136.696L396.125 145.254C396.133 146.002 396.549 146.508 397.372 146.772C397.5 146.807 397.591 146.824 397.646 146.824L397.689 150.706C396.65 150.718 395.607 150.355 394.559 149.619C393.071 148.542 392.307 147.101 392.269 145.297ZM399.192 150.69L399.15 146.807C399.441 146.804 399.768 146.646 400.129 146.332C400.472 146.018 400.65 145.642 400.663 145.205L400.569 136.647C400.565 136.318 400.407 135.974 400.093 135.613C399.798 135.306 399.44 135.146 399.021 135.132L398.979 131.277C400.82 131.257 402.305 132.034 403.434 133.607C404.082 134.512 404.411 135.365 404.419 136.167L404.519 145.162C404.541 147.186 403.656 148.745 401.863 149.84C400.921 150.397 400.031 150.681 399.192 150.69ZM405.857 135.112L405.816 131.339L417.655 131.209L417.696 134.982L413.704 135.026L413.874 150.392L410.018 150.435L409.849 135.068L405.857 135.112ZM418.517 134.973L418.475 131.2L430.314 131.07L430.356 134.844L426.364 134.887L426.533 150.254L422.678 150.296L422.509 134.93L418.517 134.973ZM432.083 150.193L431.873 131.053L441.825 130.944L441.867 134.772L435.77 134.839L435.813 138.722L439.34 138.683L439.382 142.538L435.855 142.577L435.896 146.295L441.994 146.229L442.036 150.084L432.083 150.193Z" fill="url(#paint1_linear_212_4)"/>
</g>
<defs>
<filter id="filter0_d_212_4" x="317.753" y="130.808" width="127.285" height="27.7392" filterUnits="userSpaceOnUse" color-interpolation-filters="sRGB">
<feFlood flood-opacity="0" result="BackgroundImageFix"/>
<feColorMatrix in="SourceAlpha" type="matrix" values="0 0 0 0 0 0 0 0 0 0 0 0 0 0 0 0 0 0 127 0" result="hardAlpha"/>
<feOffset dy="4"/>
<feGaussianBlur stdDeviation="1.5"/>
<feComposite in2="hardAlpha" operator="out"/>
<feColorMatrix type="matrix" values="0 0 0 0 0 0 0 0 0 0 0 0 0 0 0 0 0 0 0.25 0"/>
<feBlend mode="normal" in2="BackgroundImageFix" result="effect1_dropShadow_212_4"/>
<feBlend mode="normal" in="SourceGraphic" in2="effect1_dropShadow_212_4" result="shape"/>
</filter>
<linearGradient id="paint0_linear_212_4" x1="244.923" y1="89.799" x2="315.538" y2="150.455" gradientUnits="userSpaceOnUse">
<stop offset="0.563544"/>
<stop offset="1" stop-color="#001FAA"/>
</linearGradient>
<linearGradient id="paint1_linear_212_4" x1="313.046" y1="127.683" x2="446.811" y2="157.205" gradientUnits="userSpaceOnUse">
<stop offset="0.0635928" stop-color="#000B4A"/>
<stop offset="0.986007" stop-color="#00136A"/>
</linearGradient>
</defs>
</svg>
