<svg width="548" height="210" viewBox="0 0 548 210" fill="none" xmlns="http://www.w3.org/2000/svg">
<path d="M248.203 84V56.6562H262.422V60.9531H252.578V68.2188H258.75V72.5938H252.578V79.6641H262.422V84H248.203ZM265.547 84V56.6562H269.922V79.7031H280.234V84H265.547ZM282.5 84V56.6562H296.719V60.9531H286.875V68.2188H293.047V72.5938H286.875V79.6641H296.719V84H282.5ZM299.883 84V63.6094H300.195L304.258 70.1328V84H299.883ZM299.883 59.4688V56.6562H303.516L317.266 78.7266V84H315.156L299.883 59.4688ZM312.891 68.0625V56.6562H317.266V74.5859H316.953L312.891 68.0625ZM320.117 84L325.273 61.0703H325.859L327.656 69.3516L324.414 84H320.117ZM327.344 80.0938L328.242 75.8359H331.172L326.953 56.6562H331.25L337.539 84H333.203L332.344 80.0938H327.344Z" fill="white"/>
<path d="M241.602 67.8V60.6L245.202 64.2V67.8H241.602ZM241.602 75V67.8L245.202 71.4V75H241.602ZM191.202 89.4V53.4H209.202L212.802 57V71.4H223.602V53.4H241.602L245.202 57V60.6H241.602V57H227.202V71.4L223.602 75H209.202V57H194.802V85.8L191.202 89.4ZM241.602 82.2V75L245.202 78.6V82.2H241.602ZM241.602 89.4V82.2L245.202 85.8V89.4H241.602ZM241.602 96.6V89.4L245.202 93V96.6H241.602ZM241.602 103.8V96.6L245.202 100.2V103.8H241.602ZM191.202 111V89.4H194.802V107.4H209.202V89.4H223.602L227.202 93V107.4H238.002L234.402 111H223.602V93H212.802V107.4L209.202 111H191.202ZM241.602 107.4V103.8L245.202 107.4H241.602ZM238.002 111V107.4H241.602V111H238.002Z" fill="white"/>
<path d="M247.126 100.062L249.64 88.0985L249.947 88.0951L251.241 93.8234L249.955 100.031L247.126 100.062ZM251.474 98.2713L252.058 95.4347L252.797 95.4265L250.515 85.6688L253.366 85.6375L256.907 99.9549L254.036 99.9864L253.607 98.2479L251.474 98.2713ZM258.158 99.9412L258.058 90.8362L258.243 90.8342L261.021 97.3051L261.049 99.9094L258.158 99.9412ZM258.021 87.4732L258 85.5866L260.256 85.5618L264.277 95.0133L266.397 90.0884L266.602 90.0861L266.675 96.7507L265.335 99.8623L263.346 99.8842L258.021 87.4732ZM267.817 99.8351L267.659 85.4805L270.55 85.4487L270.708 99.8033L267.817 99.8351ZM272.226 99.7866L274.74 87.8227L275.047 87.8194L276.341 93.5477L275.055 99.7555L272.226 99.7866ZM276.574 97.9956L277.158 95.1589L277.897 95.1508L275.616 85.3931L278.466 85.3617L282.007 99.6792L279.136 99.7107L278.707 97.9722L276.574 97.9956ZM283.012 99.6681L282.98 96.7767L287.192 88.1371L282.886 88.1845L282.854 85.3135L290.36 85.2311L290.391 88.0405L286.179 96.68L290.485 96.6327L290.517 99.5857L283.012 99.6681ZM291.748 99.5722L291.716 96.6807L295.928 88.0412L291.622 88.0885L291.59 85.2176L299.096 85.1351L299.126 87.9445L294.914 96.5841L299.221 96.5368L299.253 99.4897L291.748 99.5722ZM300.604 95.4756L300.53 88.729C300.522 88.0044 300.821 87.2628 301.428 86.5041C302.238 85.5108 303.271 85.0004 304.529 84.9729L304.56 87.8643C304 87.8841 303.634 88.2026 303.463 88.8198C303.437 88.9158 303.424 88.9843 303.425 89.0253L303.495 95.4439C303.501 96.0044 303.813 96.3838 304.431 96.5821C304.527 96.6084 304.595 96.6213 304.636 96.6208L304.668 99.5328C303.889 99.5413 303.107 99.2696 302.321 98.7177C301.205 97.9096 300.632 96.8289 300.604 95.4756ZM305.796 99.5204L305.764 96.6085C305.983 96.6061 306.228 96.4871 306.498 96.2517C306.756 96.0165 306.889 95.7347 306.899 95.4065L306.829 88.9879C306.826 88.7418 306.707 88.4833 306.472 88.2125C306.25 87.9825 305.982 87.8624 305.668 87.8521L305.636 84.9607C307.017 84.9456 308.131 85.5281 308.978 86.7083C309.464 87.3866 309.71 88.0265 309.717 88.628L309.791 95.3747C309.807 96.8922 309.143 98.0617 307.799 98.8831C307.092 99.3011 306.425 99.5135 305.796 99.5204ZM310.795 87.8368L310.764 85.0069L319.643 84.9094L319.674 87.7393L316.68 87.7722L316.807 99.2969L313.915 99.3286L313.789 87.804L310.795 87.8368ZM320.289 87.7325L320.258 84.9026L329.138 84.8051L329.169 87.635L326.175 87.6679L326.301 99.1926L323.41 99.2243L323.283 87.6997L320.289 87.7325ZM330.464 99.1469L330.307 84.7923L337.771 84.7103L337.802 87.5812L333.23 87.6314L333.262 90.5433L335.907 90.5143L335.939 93.4057L333.293 93.4348L333.324 96.2237L337.897 96.1734L337.929 99.0649L330.464 99.1469Z" fill="white"/>
<path d="M282.586 114.223V106.816V106.348C282.734 106.332 282.875 106.32 283.008 106.312C283.141 106.305 283.27 106.301 283.395 106.301C283.918 106.301 284.34 106.359 284.66 106.477C284.988 106.586 285.238 106.723 285.41 106.887C285.582 107.051 285.695 107.223 285.75 107.402C285.812 107.574 285.844 107.723 285.844 107.848C285.844 108.246 285.746 108.598 285.551 108.902C285.363 109.207 285.078 109.418 284.695 109.535C285.867 109.535 286.73 109.734 287.285 110.133C287.848 110.531 288.129 111.07 288.129 111.75C288.129 112.555 287.754 113.176 287.004 113.613C286.254 114.043 285.117 114.258 283.594 114.258C283.273 114.258 282.938 114.246 282.586 114.223ZM282.961 107.027L283.125 109.488C283.711 109.434 284.184 109.273 284.543 109.008C284.91 108.742 285.094 108.387 285.094 107.941C285.094 107.652 284.961 107.422 284.695 107.25C284.43 107.078 284.035 106.992 283.512 106.992C283.34 106.992 283.156 107.004 282.961 107.027ZM283.148 110.262L283.336 113.379C283.492 113.395 283.641 113.406 283.781 113.414C283.93 113.422 284.074 113.426 284.215 113.426C284.652 113.426 285.062 113.391 285.445 113.32C285.828 113.242 286.16 113.129 286.441 112.98C286.723 112.832 286.941 112.652 287.098 112.441C287.262 112.23 287.344 111.988 287.344 111.715C287.344 111.473 287.254 111.258 287.074 111.07C286.902 110.875 286.672 110.711 286.383 110.578C286.094 110.445 285.758 110.348 285.375 110.285C285 110.215 284.613 110.18 284.215 110.18C284.035 110.18 283.855 110.188 283.676 110.203C283.496 110.219 283.32 110.238 283.148 110.262ZM291.867 113.754H289.078V113.098H289.992V107.238H288.68V106.605L291.258 106.441V107.121L290.414 107.191V113.051H291.867V113.754ZM292.922 114.223V106.816V106.348C293.07 106.332 293.211 106.32 293.344 106.312C293.477 106.305 293.605 106.301 293.73 106.301C294.254 106.301 294.676 106.359 294.996 106.477C295.324 106.586 295.574 106.723 295.746 106.887C295.918 107.051 296.031 107.223 296.086 107.402C296.148 107.574 296.18 107.723 296.18 107.848C296.18 108.246 296.082 108.598 295.887 108.902C295.699 109.207 295.414 109.418 295.031 109.535C296.203 109.535 297.066 109.734 297.621 110.133C298.184 110.531 298.465 111.07 298.465 111.75C298.465 112.555 298.09 113.176 297.34 113.613C296.59 114.043 295.453 114.258 293.93 114.258C293.609 114.258 293.273 114.246 292.922 114.223ZM293.297 107.027L293.461 109.488C294.047 109.434 294.52 109.273 294.879 109.008C295.246 108.742 295.43 108.387 295.43 107.941C295.43 107.652 295.297 107.422 295.031 107.25C294.766 107.078 294.371 106.992 293.848 106.992C293.676 106.992 293.492 107.004 293.297 107.027ZM293.484 110.262L293.672 113.379C293.828 113.395 293.977 113.406 294.117 113.414C294.266 113.422 294.41 113.426 294.551 113.426C294.988 113.426 295.398 113.391 295.781 113.32C296.164 113.242 296.496 113.129 296.777 112.98C297.059 112.832 297.277 112.652 297.434 112.441C297.598 112.23 297.68 111.988 297.68 111.715C297.68 111.473 297.59 111.258 297.41 111.07C297.238 110.875 297.008 110.711 296.719 110.578C296.43 110.445 296.094 110.348 295.711 110.285C295.336 110.215 294.949 110.18 294.551 110.18C294.371 110.18 294.191 110.188 294.012 110.203C293.832 110.219 293.656 110.238 293.484 110.262ZM299.461 113.402V106.488H300.281V113.121H304.5V113.965H299.93L299.461 113.402ZM308.297 113.754H305.508V113.098H306.422V107.238H305.109V106.605L307.688 106.441V107.121L306.844 107.191V113.051H308.297V113.754ZM313.711 110.074C313.641 109.684 313.547 109.316 313.43 108.973C313.312 108.629 313.168 108.332 312.996 108.082C312.832 107.824 312.641 107.621 312.422 107.473C312.203 107.324 311.957 107.25 311.684 107.25C311.379 107.25 311.117 107.324 310.898 107.473C310.68 107.613 310.496 107.801 310.348 108.035C310.207 108.27 310.102 108.535 310.031 108.832C309.961 109.129 309.926 109.434 309.926 109.746C309.926 110.113 309.965 110.508 310.043 110.93C310.121 111.352 310.242 111.742 310.406 112.102C310.57 112.453 310.777 112.746 311.027 112.98C311.285 113.215 311.586 113.332 311.93 113.332C312.266 113.332 312.551 113.258 312.785 113.109C313.02 112.953 313.207 112.754 313.348 112.512C313.496 112.262 313.602 111.984 313.664 111.68C313.727 111.375 313.758 111.074 313.758 110.777C313.758 110.66 313.754 110.543 313.746 110.426C313.738 110.301 313.727 110.184 313.711 110.074ZM314.484 109.98C314.5 110.105 314.512 110.23 314.52 110.355C314.527 110.473 314.531 110.594 314.531 110.719C314.531 111.133 314.48 111.547 314.379 111.961C314.277 112.367 314.125 112.734 313.922 113.062C313.719 113.391 313.461 113.656 313.148 113.859C312.836 114.062 312.469 114.164 312.047 114.164C311.664 114.164 311.297 114.066 310.945 113.871C310.594 113.668 310.281 113.383 310.008 113.016C309.742 112.641 309.527 112.191 309.363 111.668C309.207 111.145 309.129 110.555 309.129 109.898C309.129 109.469 309.18 109.051 309.281 108.645C309.383 108.238 309.539 107.875 309.75 107.555C309.961 107.234 310.227 106.977 310.547 106.781C310.867 106.586 311.246 106.488 311.684 106.488C312.129 106.488 312.516 106.602 312.844 106.828C313.172 107.047 313.449 107.328 313.676 107.672C313.902 108.016 314.082 108.395 314.215 108.809C314.348 109.215 314.438 109.605 314.484 109.98ZM317.695 107.379H315.141V106.699H321.07V107.285H318.422L319.055 114.035L318.305 114.105L317.695 107.379ZM327.047 113.191V114.012H322.594L322.172 113.449V107.262L322.641 106.582H326.414V107.262H322.992V109.887H326.648V110.52H322.945V113.191H327.047ZM332.625 107.52L332.109 107.848C331.984 107.668 331.797 107.508 331.547 107.367C331.297 107.227 331.031 107.156 330.75 107.156C330.422 107.156 330.117 107.238 329.836 107.402C329.562 107.559 329.32 107.785 329.109 108.082C328.906 108.379 328.746 108.734 328.629 109.148C328.512 109.562 328.453 110.02 328.453 110.52C328.461 110.957 328.539 111.352 328.688 111.703C328.844 112.055 329.043 112.355 329.285 112.605C329.527 112.848 329.797 113.035 330.094 113.168C330.391 113.301 330.688 113.367 330.984 113.367C331.375 113.367 331.727 113.281 332.039 113.109C332.352 112.93 332.633 112.645 332.883 112.254L333.352 112.934C333 113.355 332.621 113.664 332.215 113.859C331.809 114.055 331.379 114.152 330.926 114.152C330.512 114.152 330.109 114.059 329.719 113.871C329.328 113.684 328.98 113.422 328.676 113.086C328.371 112.742 328.125 112.332 327.938 111.855C327.758 111.371 327.668 110.836 327.668 110.25C327.668 109.805 327.727 109.355 327.844 108.902C327.961 108.449 328.141 108.039 328.383 107.672C328.633 107.305 328.949 107.008 329.332 106.781C329.723 106.547 330.188 106.43 330.727 106.43C331.133 106.43 331.512 106.512 331.863 106.676C332.215 106.84 332.469 107.121 332.625 107.52ZM335.742 110.285H337.547L336.539 107.637L335.742 110.285ZM334.641 114.129L333.844 113.941L336.258 106.301H336.773L339.609 113.988L338.859 114.199L337.758 111.012H335.555L334.641 114.129Z" fill="#FFED76"/>
<path d="M112.674 31.3479C112.267 31.6868 111.657 34.2287 111.251 36.94L110.539 41.9389H106.676C99.3555 41.9389 98.1355 42.8709 96.8139 49.3102C91.0188 77.4398 86.1388 100.401 84.7155 106.925C83.8005 111.246 83.2922 114.974 83.5972 115.313C83.9022 115.567 85.9355 115.059 88.1722 114.127C102.609 108.027 128.127 106.84 149.477 111.331C153.646 112.263 157.204 112.856 157.306 112.771C158.119 112.178 145.411 106.756 139.412 105.061C131.177 102.689 116.537 100.401 109.827 100.401C101.592 100.401 101.694 101.757 107.591 73.966C114.707 41.0916 116.029 35.669 116.741 34.9912C117.961 33.9745 136.057 36.0079 144.902 38.1261C149.782 39.3123 155.882 41.1763 158.627 42.3625C161.372 43.5487 164.321 44.4807 165.134 44.4807C166.049 44.4807 169.811 47.0225 173.674 50.1575L180.689 55.919L181.401 76.2536C181.807 87.4377 182.519 96.9272 183.027 97.2661C183.434 97.6897 184.146 88.878 184.451 77.7787C184.857 66.6794 185.569 56.7662 186.077 55.7495C188.111 51.5978 208.647 39.9054 219.729 36.6858C220.543 36.4316 220.848 36.0079 220.543 35.669C219.831 34.9912 214.925 37.1729 213.4 37.8084C213.782 37.8084 213.4 37.8084 212.638 38.1261C211.494 38.4438 205.597 40.0749 199.497 43.3793C196.447 44.9891 191.466 48.2087 188.517 50.5811L183.027 54.9022L177.537 50.5811C167.472 42.6167 154.052 36.601 139.717 33.5508C131.076 31.6868 113.894 30.3312 112.674 31.3479ZM109.217 44.3113C109.624 44.9044 107.896 54.4786 101.287 86.2515C97.4239 104.553 96.1022 102.604 112.674 103.197C126.094 103.621 141.242 105.908 145.309 108.111C146.631 108.789 146.427 108.874 144.394 108.45C142.971 108.111 133.414 107.688 123.044 107.433C106.574 107.094 103.321 107.264 96.6105 108.704C92.4422 109.636 88.7822 110.229 88.5788 110.06C88.3755 109.975 88.9855 106.078 89.7988 101.502C90.7138 96.9272 92.8488 85.5737 94.5772 76.2536C97.6272 59.7317 99.1522 51.5131 100.271 46.8531C100.576 45.5822 101.592 44.396 102.507 44.2265C105.456 43.5487 108.709 43.6334 109.217 44.3113Z" fill="white"/>
<path d="M71.963 116.895C68.7097 125.199 68.608 125.432 66.7018 131.786C66.7018 132.422 66.7018 132.422 66.9814 132.739C68.9893 132.739 68.9893 132.739 83.3497 130.706C99.3114 128.334 123.508 125.792 142.113 124.69C158.177 123.674 158.685 123.674 162.447 125.453C165.598 126.893 166.668 127.779 169.258 128.609C174.215 130.198 174.596 130.833 181.458 131.469C186.415 131.151 186.135 130.791 191.218 129.435C196.81 127.825 202.808 123.97 203.952 123.335C204.715 123.017 205.096 123.017 205.096 123.017C205.096 123.017 203.952 123.017 202.808 123.017C201.665 123.97 205.842 123.335 212.958 121.894C226.827 120.793 226.827 120.157 215.5 120.2C213.772 119.861 210.535 119.691 208.908 119.776C207.18 119.946 205.202 119.776 203.702 119.739C202 120 201.702 119.739 200.267 120.2C196.202 122.739 190.913 125.199 181.865 125.199C173.325 125.199 172.918 125.114 167.327 121.894L161.633 118.59L150.653 119.183C136.725 119.946 114.866 121.979 103.175 123.589C92.4998 125.029 74.5047 127.995 71.963 128.672C70.743 128.927 70.3364 128.757 70.6414 127.995C70.8447 127.402 71.353 125.961 71.5564 124.775C71.8614 123.589 73.488 118.251 75.1147 112.913C76.843 107.575 78.0631 103.085 77.8597 103C77.6564 102.831 75.013 109.1 71.963 116.895Z" fill="white"/>
<path d="M243 110.5H280" stroke="#FFED76"/>
</svg>
